%TF.GenerationSoftware,KiCad,Pcbnew,8.0.8*%
%TF.CreationDate,2025-02-11T11:30:28+05:30*%
%TF.ProjectId,my-template,6d792d74-656d-4706-9c61-74652e6b6963,rev?*%
%TF.SameCoordinates,Original*%
%TF.FileFunction,Profile,NP*%
%FSLAX46Y46*%
G04 Gerber Fmt 4.6, Leading zero omitted, Abs format (unit mm)*
G04 Created by KiCad (PCBNEW 8.0.8) date 2025-02-11 11:30:28*
%MOMM*%
%LPD*%
G01*
G04 APERTURE LIST*
%TA.AperFunction,Profile*%
%ADD10C,0.050000*%
%TD*%
%ADD11C,0.350000*%
G04 APERTURE END LIST*
D10*
X129892600Y-62091600D02*
X150892600Y-62091600D01*
X150892600Y-113091600D01*
X129892600Y-113091600D01*
X129892600Y-62091600D01*
D11*
X149702600Y-111925600D03*
X149702600Y-109021600D03*
X149702600Y-106481600D03*
X149702600Y-103941600D03*
X149702600Y-101401600D03*
X149702600Y-98861600D03*
X149702600Y-96321600D03*
X149702600Y-93781600D03*
X149702600Y-91241600D03*
X149702600Y-88701600D03*
X149702600Y-86161600D03*
X149702600Y-83621600D03*
X149702600Y-81081600D03*
X149702600Y-78541600D03*
X149702600Y-76001600D03*
X149702600Y-73461600D03*
X149702600Y-70921600D03*
X149702600Y-68381600D03*
X149702600Y-65841600D03*
X149702600Y-63301600D03*
X137702600Y-111901600D03*
X140342600Y-111901600D03*
X142782600Y-111901600D03*
X131102600Y-63301600D03*
X131102600Y-65886600D03*
X131102600Y-68426600D03*
X131102600Y-70966600D03*
X131102600Y-73506600D03*
X131102600Y-76046600D03*
X131102600Y-78586600D03*
X131102600Y-81126600D03*
X131102600Y-83666600D03*
X131102600Y-86206600D03*
X131102600Y-88746600D03*
X131102600Y-91286600D03*
X131102600Y-93826600D03*
X131102600Y-96366600D03*
X131102600Y-98906600D03*
X131102600Y-101446600D03*
X131102600Y-103986600D03*
X131102600Y-106526600D03*
X131102600Y-109066600D03*
X131102600Y-111606600D03*
M02*
