M48
; DRILL file {KiCad 8.0.8} date 2025-02-11T11:30:28+0530
; FORMAT={-:-/ absolute / metric / decimal}
; #@! TF.CreationDate,2025-02-11T11:30:28+05:30
; #@! TF.GenerationSoftware,Kicad,Pcbnew,8.0.8
; #@! TF.FileFunction,Plated,1,2,PTH
FMAT,2
METRIC
; #@! TA.AperFunction,Plated,PTH,ViaDrill
T1C0.350
; #@! TA.AperFunction,Plated,PTH,ComponentDrill
T2C0.762
%
G90
G05
T1
X133.503Y-88.209
X134.527Y-90.197
X134.54Y-83.29
X135.037Y-73.312
X135.278Y-90.004
X136.24Y-89.437
X136.288Y-98.207
X136.303Y-68.63
X136.393Y-82.736
X136.875Y-79.092
X136.893Y-79.844
X137.14Y-84.706
X137.364Y-97.163
X137.966Y-89.896
X137.968Y-88.001
X137.97Y-90.757
X138.094Y-91.999
X138.197Y-83.314
X138.209Y-110.506
X138.669Y-86.045
X138.899Y-88.016
X138.926Y-80.702
X139.332Y-70.317
X139.383Y-83.013
X139.903Y-86.193
X139.903Y-93.041
X140.0Y-88.366
X140.622Y-83.753
X140.846Y-88.448
X141.103Y-80.502
X141.132Y-92.93
X141.228Y-76.421
X141.346Y-82.799
X142.14Y-70.317
X142.303Y-92.947
X143.033Y-88.414
X143.043Y-90.06
X143.045Y-92.548
X144.179Y-85.822
X144.539Y-87.349
X144.966Y-75.842
X145.048Y-81.493
X145.07Y-88.202
X145.238Y-89.873
X145.272Y-71.452
X145.401Y-94.204
X145.471Y-91.977
X145.551Y-82.738
X145.964Y-75.315
X146.127Y-77.994
X146.55Y-86.914
X147.603Y-83.177
X147.938Y-88.727
X148.567Y-94.371
T2
X131.103Y-63.302
X131.103Y-65.887
X131.103Y-68.427
X131.103Y-70.967
X131.103Y-73.507
X131.103Y-76.047
X131.103Y-78.587
X131.103Y-81.127
X131.103Y-83.667
X131.103Y-86.207
X131.103Y-88.747
X131.103Y-91.287
X131.103Y-93.827
X131.103Y-96.367
X131.103Y-98.907
X131.103Y-101.447
X131.103Y-103.987
X131.103Y-106.527
X131.103Y-109.067
X131.103Y-111.607
X137.703Y-111.902
X140.343Y-111.902
X142.783Y-111.902
X149.703Y-63.302
X149.703Y-65.842
X149.703Y-68.382
X149.703Y-70.922
X149.703Y-73.462
X149.703Y-76.002
X149.703Y-78.542
X149.703Y-81.082
X149.703Y-83.622
X149.703Y-86.162
X149.703Y-88.702
X149.703Y-91.242
X149.703Y-93.782
X149.703Y-96.322
X149.703Y-98.862
X149.703Y-101.402
X149.703Y-103.942
X149.703Y-106.482
X149.703Y-109.022
X149.703Y-111.926
M30
