M48
METRIC,TZ
T1C0.350
T2C0.762
%
G90
G05
T1
X133503Y-88209
X134527Y-90197
X134540Y-83290
X135037Y-73313
X135279Y-90004
X136240Y-89437
X136288Y-98207
X136303Y-68630
X136393Y-82736
X136875Y-79092
X136893Y-79844
X137140Y-84706
X137364Y-97163
X137966Y-89897
X137968Y-88001
X137970Y-90757
X138094Y-91999
X138197Y-83314
X138209Y-110506
X138669Y-86045
X138900Y-88016
X138926Y-80702
X139332Y-70317
X139383Y-83013
X139903Y-86193
X139903Y-93041
X140000Y-88366
X140622Y-83753
X140846Y-88448
X141103Y-80502
X141132Y-92931
X141228Y-76421
X141346Y-82799
X142140Y-70317
X142303Y-92947
X143033Y-88414
X143043Y-90060
X143045Y-92548
X144179Y-85822
X144539Y-87349
X144966Y-75842
X145048Y-81493
X145070Y-88202
X145238Y-89873
X145273Y-71452
X145401Y-94204
X145471Y-91977
X145551Y-82738
X145964Y-75315
X146127Y-77994
X146550Y-86914
X147603Y-83177
X147938Y-88727
X148567Y-94371
T2
X131103Y-63302
X131103Y-65887
X131103Y-68427
X131103Y-70967
X131103Y-73507
X131103Y-76047
X131103Y-78587
X131103Y-81127
X131103Y-83667
X131103Y-86207
X131103Y-88747
X131103Y-91287
X131103Y-93827
X131103Y-96367
X131103Y-98907
X131103Y-101447
X131103Y-103987
X131103Y-106527
X131103Y-109067
X131103Y-111607
X137703Y-111902
X140343Y-111902
X142783Y-111902
X149703Y-63302
X149703Y-65842
X149703Y-68382
X149703Y-70922
X149703Y-73462
X149703Y-76002
X149703Y-78542
X149703Y-81082
X149703Y-83622
X149703Y-86162
X149703Y-88702
X149703Y-91242
X149703Y-93782
X149703Y-96322
X149703Y-98862
X149703Y-101402
X149703Y-103942
X149703Y-106482
X149703Y-109022
X149703Y-111926
M30
