%TF.GenerationSoftware,KiCad,Pcbnew,8.0.8*%
%TF.CreationDate,2025-02-11T11:30:28+05:30*%
%TF.ProjectId,my-template,6d792d74-656d-4706-9c61-74652e6b6963,rev?*%
%TF.SameCoordinates,Original*%
%TF.FileFunction,Paste,Top*%
%TF.FilePolarity,Positive*%
%FSLAX46Y46*%
G04 Gerber Fmt 4.6, Leading zero omitted, Abs format (unit mm)*
G04 Created by KiCad (PCBNEW 8.0.8) date 2025-02-11 11:30:28*
%MOMM*%
%LPD*%
G01*
G04 APERTURE LIST*
G04 Aperture macros list*
%AMRoundRect*
0 Rectangle with rounded corners*
0 $1 Rounding radius*
0 $2 $3 $4 $5 $6 $7 $8 $9 X,Y pos of 4 corners*
0 Add a 4 corners polygon primitive as box body*
4,1,4,$2,$3,$4,$5,$6,$7,$8,$9,$2,$3,0*
0 Add four circle primitives for the rounded corners*
1,1,$1+$1,$2,$3*
1,1,$1+$1,$4,$5*
1,1,$1+$1,$6,$7*
1,1,$1+$1,$8,$9*
0 Add four rect primitives between the rounded corners*
20,1,$1+$1,$2,$3,$4,$5,0*
20,1,$1+$1,$4,$5,$6,$7,0*
20,1,$1+$1,$6,$7,$8,$9,0*
20,1,$1+$1,$8,$9,$2,$3,0*%
G04 Aperture macros list end*
%ADD10C,0.000000*%
%ADD11RoundRect,0.100000X-0.100000X0.155000X-0.100000X-0.155000X0.100000X-0.155000X0.100000X0.155000X0*%
%ADD12RoundRect,0.135000X-0.135000X-0.185000X0.135000X-0.185000X0.135000X0.185000X-0.135000X0.185000X0*%
%ADD13RoundRect,0.079500X-0.079500X-0.100500X0.079500X-0.100500X0.079500X0.100500X-0.079500X0.100500X0*%
%ADD14R,1.092200X1.143000*%
%ADD15RoundRect,0.135000X0.135000X0.185000X-0.135000X0.185000X-0.135000X-0.185000X0.135000X-0.185000X0*%
%ADD16R,0.254000X0.812800*%
%ADD17R,1.651000X0.254000*%
%ADD18RoundRect,0.140000X0.170000X-0.140000X0.170000X0.140000X-0.170000X0.140000X-0.170000X-0.140000X0*%
%ADD19RoundRect,0.079500X0.100500X-0.079500X0.100500X0.079500X-0.100500X0.079500X-0.100500X-0.079500X0*%
%ADD20RoundRect,0.250000X-0.250000X-0.475000X0.250000X-0.475000X0.250000X0.475000X-0.250000X0.475000X0*%
%ADD21RoundRect,0.147500X-0.172500X0.147500X-0.172500X-0.147500X0.172500X-0.147500X0.172500X0.147500X0*%
%ADD22RoundRect,0.079500X-0.100500X0.079500X-0.100500X-0.079500X0.100500X-0.079500X0.100500X0.079500X0*%
%ADD23RoundRect,0.135000X-0.185000X0.135000X-0.185000X-0.135000X0.185000X-0.135000X0.185000X0.135000X0*%
%ADD24R,0.450000X1.380000*%
%ADD25R,1.650000X1.300000*%
%ADD26R,1.425000X1.550000*%
%ADD27R,1.800000X1.900000*%
%ADD28R,1.000000X1.900000*%
%ADD29R,0.650000X1.050000*%
%ADD30RoundRect,0.147500X-0.147500X-0.172500X0.147500X-0.172500X0.147500X0.172500X-0.147500X0.172500X0*%
%ADD31R,0.762000X0.254000*%
%ADD32R,1.244600X2.057400*%
%ADD33RoundRect,0.135000X0.185000X-0.135000X0.185000X0.135000X-0.185000X0.135000X-0.185000X-0.135000X0*%
%ADD34RoundRect,0.140000X-0.140000X-0.170000X0.140000X-0.170000X0.140000X0.170000X-0.140000X0.170000X0*%
%ADD35R,0.812800X0.177800*%
%ADD36R,0.177800X0.812800*%
%ADD37R,3.200400X3.200400*%
%ADD38RoundRect,0.200000X-0.275000X0.200000X-0.275000X-0.200000X0.275000X-0.200000X0.275000X0.200000X0*%
%ADD39R,1.100000X0.900000*%
%ADD40RoundRect,0.079500X-0.126786X0.018599X-0.047286X-0.119099X0.126786X-0.018599X0.047286X0.119099X0*%
G04 APERTURE END LIST*
D10*
%TO.C,U2*%
G36*
X140402600Y-90401600D02*
G01*
X139002400Y-90401600D01*
X139002400Y-89001400D01*
X140402600Y-89001400D01*
X140402600Y-90401600D01*
G37*
G36*
X140402600Y-92001800D02*
G01*
X139002400Y-92001800D01*
X139002400Y-90601600D01*
X140402600Y-90601600D01*
X140402600Y-92001800D01*
G37*
G36*
X142002800Y-90401600D02*
G01*
X140602600Y-90401600D01*
X140602600Y-89001400D01*
X142002800Y-89001400D01*
X142002800Y-90401600D01*
G37*
G36*
X142002800Y-92001800D02*
G01*
X140602600Y-92001800D01*
X140602600Y-90601600D01*
X142002800Y-90601600D01*
X142002800Y-92001800D01*
G37*
%TD*%
D11*
%TO.C,Q1*%
X146602600Y-81496600D03*
X147602600Y-81496600D03*
X147102600Y-80206600D03*
%TD*%
D12*
%TO.C,R5*%
X145972600Y-89851600D03*
X146992600Y-89851600D03*
%TD*%
D13*
%TO.C,C2*%
X134102600Y-88851600D03*
X134792600Y-88851600D03*
%TD*%
D14*
%TO.C,D1*%
X146892600Y-68151600D03*
X146892600Y-71225000D03*
%TD*%
D15*
%TO.C,R4*%
X143702600Y-69701600D03*
X142682600Y-69701600D03*
%TD*%
D16*
%TO.C,U3*%
X135392599Y-83599400D03*
X135892600Y-83599400D03*
X136392600Y-83599400D03*
X136892601Y-83599400D03*
X136892601Y-80703800D03*
X136392600Y-80703800D03*
X135892600Y-80703800D03*
X135392599Y-80703800D03*
D17*
X136142600Y-82151600D03*
%TD*%
D18*
%TO.C,C10*%
X142192600Y-85611600D03*
X142192600Y-84651600D03*
%TD*%
D13*
%TO.C,C7*%
X145847600Y-88451600D03*
X146537600Y-88451600D03*
%TD*%
%TO.C,C3*%
X134102600Y-90851600D03*
X134792600Y-90851600D03*
%TD*%
D19*
%TO.C,R10*%
X140792600Y-85341600D03*
X140792600Y-84651600D03*
%TD*%
D20*
%TO.C,C4*%
X142102600Y-71501600D03*
X144002600Y-71501600D03*
%TD*%
D21*
%TO.C,L1*%
X146892600Y-73181600D03*
X146892600Y-74151600D03*
%TD*%
D15*
%TO.C,R6*%
X146992600Y-91251600D03*
X145972600Y-91251600D03*
%TD*%
D12*
%TO.C,R12*%
X136092600Y-99001600D03*
X137112600Y-99001600D03*
%TD*%
D22*
%TO.C,C18*%
X146392600Y-76626600D03*
X146392600Y-77316600D03*
%TD*%
D23*
%TO.C,R9*%
X146392600Y-84651600D03*
X146392600Y-85671600D03*
%TD*%
D20*
%TO.C,C6*%
X141902600Y-77501600D03*
X143802600Y-77501600D03*
%TD*%
D23*
%TO.C,R14*%
X147892600Y-76131600D03*
X147892600Y-77151600D03*
%TD*%
D22*
%TO.C,C9*%
X137792600Y-84651600D03*
X137792600Y-85341600D03*
%TD*%
D19*
%TO.C,C16*%
X134602600Y-102191600D03*
X134602600Y-101501600D03*
%TD*%
D24*
%TO.C,J1*%
X142052600Y-66961600D03*
X141402600Y-66961600D03*
X140752600Y-66961600D03*
X140102600Y-66961600D03*
X139452600Y-66961600D03*
D25*
X144127600Y-64301600D03*
D26*
X143240100Y-66876600D03*
D27*
X141902600Y-64301600D03*
D28*
X139202600Y-64301600D03*
D26*
X138265100Y-66876600D03*
D25*
X137377600Y-64301600D03*
%TD*%
D29*
%TO.C,SW1*%
X137967600Y-73301600D03*
X137967600Y-77451600D03*
X135817600Y-73301600D03*
X135817600Y-77451600D03*
%TD*%
D30*
%TO.C,D2*%
X132932600Y-68301600D03*
X133902600Y-68301600D03*
%TD*%
D12*
%TO.C,R13*%
X138442600Y-99501600D03*
X139462600Y-99501600D03*
%TD*%
D23*
%TO.C,R15*%
X147792600Y-84651600D03*
X147792600Y-85671600D03*
%TD*%
%TO.C,R1*%
X133592600Y-81031600D03*
X133592600Y-82051600D03*
%TD*%
D31*
%TO.C,U1*%
X144121800Y-75501601D03*
X144121800Y-75001599D03*
X144121800Y-74501600D03*
X144121800Y-74001601D03*
X144121800Y-73501599D03*
X141683400Y-73501599D03*
X141683400Y-74001601D03*
X141683400Y-74501600D03*
X141683400Y-75001599D03*
X141683400Y-75501601D03*
D32*
X142902600Y-74501600D03*
%TD*%
D33*
%TO.C,R2*%
X133592600Y-84271600D03*
X133592600Y-83251600D03*
%TD*%
D19*
%TO.C,C11*%
X138592600Y-85341600D03*
X138592600Y-84651600D03*
%TD*%
D22*
%TO.C,C17*%
X139602600Y-101001600D03*
X139602600Y-101691600D03*
%TD*%
%TO.C,C5*%
X140392600Y-95306600D03*
X140392600Y-95996600D03*
%TD*%
D18*
%TO.C,C12*%
X143392600Y-85611600D03*
X143392600Y-84651600D03*
%TD*%
D34*
%TO.C,C15*%
X133912600Y-87051600D03*
X134872600Y-87051600D03*
%TD*%
D22*
%TO.C,C1*%
X139392600Y-95306600D03*
X139392600Y-95996600D03*
%TD*%
D18*
%TO.C,C14*%
X144992600Y-85651600D03*
X144992600Y-84691600D03*
%TD*%
D35*
%TO.C,U2*%
X137099000Y-87901600D03*
X137099000Y-88301599D03*
X137099000Y-88701601D03*
X137099000Y-89101600D03*
X137099000Y-89501599D03*
X137099000Y-89901601D03*
X137099000Y-90301600D03*
X137099000Y-90701600D03*
X137099000Y-91101599D03*
X137099000Y-91501601D03*
X137099000Y-91901600D03*
X137099000Y-92301599D03*
X137099000Y-92701601D03*
X137099000Y-93101600D03*
D36*
X137902600Y-93905200D03*
X138302599Y-93905200D03*
X138702601Y-93905200D03*
X139102600Y-93905200D03*
X139502599Y-93905200D03*
X139902601Y-93905200D03*
X140302600Y-93905200D03*
X140702600Y-93905200D03*
X141102599Y-93905200D03*
X141502601Y-93905200D03*
X141902600Y-93905200D03*
X142302599Y-93905200D03*
X142702601Y-93905200D03*
X143102600Y-93905200D03*
D35*
X143906200Y-93101600D03*
X143906200Y-92701601D03*
X143906200Y-92301599D03*
X143906200Y-91901600D03*
X143906200Y-91501601D03*
X143906200Y-91101599D03*
X143906200Y-90701600D03*
X143906200Y-90301600D03*
X143906200Y-89901601D03*
X143906200Y-89501599D03*
X143906200Y-89101600D03*
X143906200Y-88701601D03*
X143906200Y-88301599D03*
X143906200Y-87901600D03*
D36*
X143102600Y-87098000D03*
X142702601Y-87098000D03*
X142302599Y-87098000D03*
X141902600Y-87098000D03*
X141502601Y-87098000D03*
X141102599Y-87098000D03*
X140702600Y-87098000D03*
X140302600Y-87098000D03*
X139902601Y-87098000D03*
X139502599Y-87098000D03*
X139102600Y-87098000D03*
X138702601Y-87098000D03*
X138302599Y-87098000D03*
X137902600Y-87098000D03*
D37*
X140502600Y-90501600D03*
%TD*%
D22*
%TO.C,C13*%
X135592600Y-78876600D03*
X135592600Y-79566600D03*
%TD*%
D38*
%TO.C,R8*%
X143792600Y-79701600D03*
X143792600Y-81351600D03*
%TD*%
D39*
%TO.C,X1*%
X136252600Y-102151600D03*
X137952600Y-102151600D03*
X137952600Y-100851600D03*
X136252600Y-100851600D03*
%TD*%
D19*
%TO.C,R7*%
X139792600Y-85341600D03*
X139792600Y-84651600D03*
%TD*%
D15*
%TO.C,R3*%
X137322600Y-69901600D03*
X136302600Y-69901600D03*
%TD*%
%TO.C,R11*%
X137342600Y-71101600D03*
X136322600Y-71101600D03*
%TD*%
D40*
%TO.C,C8*%
X145620100Y-92752821D03*
X145965100Y-93350379D03*
%TD*%
M02*
