%TF.GenerationSoftware,KiCad,Pcbnew,8.0.8*%
%TF.CreationDate,2025-02-11T11:30:28+05:30*%
%TF.ProjectId,my-template,6d792d74-656d-4706-9c61-74652e6b6963,rev?*%
%TF.SameCoordinates,Original*%
%TF.FileFunction,Legend,Top*%
%TF.FilePolarity,Positive*%
%FSLAX46Y46*%
G04 Gerber Fmt 4.6, Leading zero omitted, Abs format (unit mm)*
G04 Created by KiCad (PCBNEW 8.0.8) date 2025-02-11 11:30:28*
%MOMM*%
%LPD*%
G01*
G04 APERTURE LIST*
%ADD10C,0.100000*%
%ADD11C,0.120000*%
%ADD12C,0.150000*%
%ADD13C,0.152400*%
%ADD14C,0.000000*%
%ADD15C,0.200000*%
%ADD16C,0.350000*%
G04 APERTURE END LIST*
D10*
X147054980Y-79654257D02*
X147007361Y-79606638D01*
X147007361Y-79606638D02*
X146959742Y-79511400D01*
X146959742Y-79511400D02*
X146888314Y-79368542D01*
X146888314Y-79368542D02*
X146840695Y-79320923D01*
X146840695Y-79320923D02*
X146793076Y-79320923D01*
X146816885Y-79559019D02*
X146769266Y-79511400D01*
X146769266Y-79511400D02*
X146721647Y-79416161D01*
X146721647Y-79416161D02*
X146697838Y-79225685D01*
X146697838Y-79225685D02*
X146697838Y-78892352D01*
X146697838Y-78892352D02*
X146721647Y-78701876D01*
X146721647Y-78701876D02*
X146769266Y-78606638D01*
X146769266Y-78606638D02*
X146816885Y-78559019D01*
X146816885Y-78559019D02*
X146912123Y-78559019D01*
X146912123Y-78559019D02*
X146959742Y-78606638D01*
X146959742Y-78606638D02*
X147007361Y-78701876D01*
X147007361Y-78701876D02*
X147031171Y-78892352D01*
X147031171Y-78892352D02*
X147031171Y-79225685D01*
X147031171Y-79225685D02*
X147007361Y-79416161D01*
X147007361Y-79416161D02*
X146959742Y-79511400D01*
X146959742Y-79511400D02*
X146912123Y-79559019D01*
X146912123Y-79559019D02*
X146816885Y-79559019D01*
X147507362Y-79559019D02*
X147221648Y-79559019D01*
X147364505Y-79559019D02*
X147364505Y-78559019D01*
X147364505Y-78559019D02*
X147316886Y-78701876D01*
X147316886Y-78701876D02*
X147269267Y-78797114D01*
X147269267Y-78797114D02*
X147221648Y-78844733D01*
X147889266Y-90309019D02*
X147722600Y-89832828D01*
X147603552Y-90309019D02*
X147603552Y-89309019D01*
X147603552Y-89309019D02*
X147794028Y-89309019D01*
X147794028Y-89309019D02*
X147841647Y-89356638D01*
X147841647Y-89356638D02*
X147865457Y-89404257D01*
X147865457Y-89404257D02*
X147889266Y-89499495D01*
X147889266Y-89499495D02*
X147889266Y-89642352D01*
X147889266Y-89642352D02*
X147865457Y-89737590D01*
X147865457Y-89737590D02*
X147841647Y-89785209D01*
X147841647Y-89785209D02*
X147794028Y-89832828D01*
X147794028Y-89832828D02*
X147603552Y-89832828D01*
X148341647Y-89309019D02*
X148103552Y-89309019D01*
X148103552Y-89309019D02*
X148079743Y-89785209D01*
X148079743Y-89785209D02*
X148103552Y-89737590D01*
X148103552Y-89737590D02*
X148151171Y-89689971D01*
X148151171Y-89689971D02*
X148270219Y-89689971D01*
X148270219Y-89689971D02*
X148317838Y-89737590D01*
X148317838Y-89737590D02*
X148341647Y-89785209D01*
X148341647Y-89785209D02*
X148365457Y-89880447D01*
X148365457Y-89880447D02*
X148365457Y-90118542D01*
X148365457Y-90118542D02*
X148341647Y-90213780D01*
X148341647Y-90213780D02*
X148317838Y-90261400D01*
X148317838Y-90261400D02*
X148270219Y-90309019D01*
X148270219Y-90309019D02*
X148151171Y-90309019D01*
X148151171Y-90309019D02*
X148103552Y-90261400D01*
X148103552Y-90261400D02*
X148079743Y-90213780D01*
X132909266Y-89213780D02*
X132885457Y-89261400D01*
X132885457Y-89261400D02*
X132814028Y-89309019D01*
X132814028Y-89309019D02*
X132766409Y-89309019D01*
X132766409Y-89309019D02*
X132694981Y-89261400D01*
X132694981Y-89261400D02*
X132647362Y-89166161D01*
X132647362Y-89166161D02*
X132623552Y-89070923D01*
X132623552Y-89070923D02*
X132599743Y-88880447D01*
X132599743Y-88880447D02*
X132599743Y-88737590D01*
X132599743Y-88737590D02*
X132623552Y-88547114D01*
X132623552Y-88547114D02*
X132647362Y-88451876D01*
X132647362Y-88451876D02*
X132694981Y-88356638D01*
X132694981Y-88356638D02*
X132766409Y-88309019D01*
X132766409Y-88309019D02*
X132814028Y-88309019D01*
X132814028Y-88309019D02*
X132885457Y-88356638D01*
X132885457Y-88356638D02*
X132909266Y-88404257D01*
X133099743Y-88404257D02*
X133123552Y-88356638D01*
X133123552Y-88356638D02*
X133171171Y-88309019D01*
X133171171Y-88309019D02*
X133290219Y-88309019D01*
X133290219Y-88309019D02*
X133337838Y-88356638D01*
X133337838Y-88356638D02*
X133361647Y-88404257D01*
X133361647Y-88404257D02*
X133385457Y-88499495D01*
X133385457Y-88499495D02*
X133385457Y-88594733D01*
X133385457Y-88594733D02*
X133361647Y-88737590D01*
X133361647Y-88737590D02*
X133075933Y-89309019D01*
X133075933Y-89309019D02*
X133385457Y-89309019D01*
X146523552Y-67182419D02*
X146523552Y-66182419D01*
X146523552Y-66182419D02*
X146642600Y-66182419D01*
X146642600Y-66182419D02*
X146714028Y-66230038D01*
X146714028Y-66230038D02*
X146761647Y-66325276D01*
X146761647Y-66325276D02*
X146785457Y-66420514D01*
X146785457Y-66420514D02*
X146809266Y-66610990D01*
X146809266Y-66610990D02*
X146809266Y-66753847D01*
X146809266Y-66753847D02*
X146785457Y-66944323D01*
X146785457Y-66944323D02*
X146761647Y-67039561D01*
X146761647Y-67039561D02*
X146714028Y-67134800D01*
X146714028Y-67134800D02*
X146642600Y-67182419D01*
X146642600Y-67182419D02*
X146523552Y-67182419D01*
X147285457Y-67182419D02*
X146999743Y-67182419D01*
X147142600Y-67182419D02*
X147142600Y-66182419D01*
X147142600Y-66182419D02*
X147094981Y-66325276D01*
X147094981Y-66325276D02*
X147047362Y-66420514D01*
X147047362Y-66420514D02*
X146999743Y-66468133D01*
X141419266Y-70159019D02*
X141252600Y-69682828D01*
X141133552Y-70159019D02*
X141133552Y-69159019D01*
X141133552Y-69159019D02*
X141324028Y-69159019D01*
X141324028Y-69159019D02*
X141371647Y-69206638D01*
X141371647Y-69206638D02*
X141395457Y-69254257D01*
X141395457Y-69254257D02*
X141419266Y-69349495D01*
X141419266Y-69349495D02*
X141419266Y-69492352D01*
X141419266Y-69492352D02*
X141395457Y-69587590D01*
X141395457Y-69587590D02*
X141371647Y-69635209D01*
X141371647Y-69635209D02*
X141324028Y-69682828D01*
X141324028Y-69682828D02*
X141133552Y-69682828D01*
X141847838Y-69492352D02*
X141847838Y-70159019D01*
X141728790Y-69111400D02*
X141609743Y-69825685D01*
X141609743Y-69825685D02*
X141919266Y-69825685D01*
X141581171Y-84063780D02*
X141557362Y-84111400D01*
X141557362Y-84111400D02*
X141485933Y-84159019D01*
X141485933Y-84159019D02*
X141438314Y-84159019D01*
X141438314Y-84159019D02*
X141366886Y-84111400D01*
X141366886Y-84111400D02*
X141319267Y-84016161D01*
X141319267Y-84016161D02*
X141295457Y-83920923D01*
X141295457Y-83920923D02*
X141271648Y-83730447D01*
X141271648Y-83730447D02*
X141271648Y-83587590D01*
X141271648Y-83587590D02*
X141295457Y-83397114D01*
X141295457Y-83397114D02*
X141319267Y-83301876D01*
X141319267Y-83301876D02*
X141366886Y-83206638D01*
X141366886Y-83206638D02*
X141438314Y-83159019D01*
X141438314Y-83159019D02*
X141485933Y-83159019D01*
X141485933Y-83159019D02*
X141557362Y-83206638D01*
X141557362Y-83206638D02*
X141581171Y-83254257D01*
X142057362Y-84159019D02*
X141771648Y-84159019D01*
X141914505Y-84159019D02*
X141914505Y-83159019D01*
X141914505Y-83159019D02*
X141866886Y-83301876D01*
X141866886Y-83301876D02*
X141819267Y-83397114D01*
X141819267Y-83397114D02*
X141771648Y-83444733D01*
X142366885Y-83159019D02*
X142414504Y-83159019D01*
X142414504Y-83159019D02*
X142462123Y-83206638D01*
X142462123Y-83206638D02*
X142485933Y-83254257D01*
X142485933Y-83254257D02*
X142509742Y-83349495D01*
X142509742Y-83349495D02*
X142533552Y-83539971D01*
X142533552Y-83539971D02*
X142533552Y-83778066D01*
X142533552Y-83778066D02*
X142509742Y-83968542D01*
X142509742Y-83968542D02*
X142485933Y-84063780D01*
X142485933Y-84063780D02*
X142462123Y-84111400D01*
X142462123Y-84111400D02*
X142414504Y-84159019D01*
X142414504Y-84159019D02*
X142366885Y-84159019D01*
X142366885Y-84159019D02*
X142319266Y-84111400D01*
X142319266Y-84111400D02*
X142295457Y-84063780D01*
X142295457Y-84063780D02*
X142271647Y-83968542D01*
X142271647Y-83968542D02*
X142247838Y-83778066D01*
X142247838Y-83778066D02*
X142247838Y-83539971D01*
X142247838Y-83539971D02*
X142271647Y-83349495D01*
X142271647Y-83349495D02*
X142295457Y-83254257D01*
X142295457Y-83254257D02*
X142319266Y-83206638D01*
X142319266Y-83206638D02*
X142366885Y-83159019D01*
X146019266Y-88063780D02*
X145995457Y-88111400D01*
X145995457Y-88111400D02*
X145924028Y-88159019D01*
X145924028Y-88159019D02*
X145876409Y-88159019D01*
X145876409Y-88159019D02*
X145804981Y-88111400D01*
X145804981Y-88111400D02*
X145757362Y-88016161D01*
X145757362Y-88016161D02*
X145733552Y-87920923D01*
X145733552Y-87920923D02*
X145709743Y-87730447D01*
X145709743Y-87730447D02*
X145709743Y-87587590D01*
X145709743Y-87587590D02*
X145733552Y-87397114D01*
X145733552Y-87397114D02*
X145757362Y-87301876D01*
X145757362Y-87301876D02*
X145804981Y-87206638D01*
X145804981Y-87206638D02*
X145876409Y-87159019D01*
X145876409Y-87159019D02*
X145924028Y-87159019D01*
X145924028Y-87159019D02*
X145995457Y-87206638D01*
X145995457Y-87206638D02*
X146019266Y-87254257D01*
X146185933Y-87159019D02*
X146519266Y-87159019D01*
X146519266Y-87159019D02*
X146304981Y-88159019D01*
X132909266Y-91213780D02*
X132885457Y-91261400D01*
X132885457Y-91261400D02*
X132814028Y-91309019D01*
X132814028Y-91309019D02*
X132766409Y-91309019D01*
X132766409Y-91309019D02*
X132694981Y-91261400D01*
X132694981Y-91261400D02*
X132647362Y-91166161D01*
X132647362Y-91166161D02*
X132623552Y-91070923D01*
X132623552Y-91070923D02*
X132599743Y-90880447D01*
X132599743Y-90880447D02*
X132599743Y-90737590D01*
X132599743Y-90737590D02*
X132623552Y-90547114D01*
X132623552Y-90547114D02*
X132647362Y-90451876D01*
X132647362Y-90451876D02*
X132694981Y-90356638D01*
X132694981Y-90356638D02*
X132766409Y-90309019D01*
X132766409Y-90309019D02*
X132814028Y-90309019D01*
X132814028Y-90309019D02*
X132885457Y-90356638D01*
X132885457Y-90356638D02*
X132909266Y-90404257D01*
X133075933Y-90309019D02*
X133385457Y-90309019D01*
X133385457Y-90309019D02*
X133218790Y-90689971D01*
X133218790Y-90689971D02*
X133290219Y-90689971D01*
X133290219Y-90689971D02*
X133337838Y-90737590D01*
X133337838Y-90737590D02*
X133361647Y-90785209D01*
X133361647Y-90785209D02*
X133385457Y-90880447D01*
X133385457Y-90880447D02*
X133385457Y-91118542D01*
X133385457Y-91118542D02*
X133361647Y-91213780D01*
X133361647Y-91213780D02*
X133337838Y-91261400D01*
X133337838Y-91261400D02*
X133290219Y-91309019D01*
X133290219Y-91309019D02*
X133147362Y-91309019D01*
X133147362Y-91309019D02*
X133099743Y-91261400D01*
X133099743Y-91261400D02*
X133075933Y-91213780D01*
X140581171Y-82159019D02*
X140414505Y-81682828D01*
X140295457Y-82159019D02*
X140295457Y-81159019D01*
X140295457Y-81159019D02*
X140485933Y-81159019D01*
X140485933Y-81159019D02*
X140533552Y-81206638D01*
X140533552Y-81206638D02*
X140557362Y-81254257D01*
X140557362Y-81254257D02*
X140581171Y-81349495D01*
X140581171Y-81349495D02*
X140581171Y-81492352D01*
X140581171Y-81492352D02*
X140557362Y-81587590D01*
X140557362Y-81587590D02*
X140533552Y-81635209D01*
X140533552Y-81635209D02*
X140485933Y-81682828D01*
X140485933Y-81682828D02*
X140295457Y-81682828D01*
X141057362Y-82159019D02*
X140771648Y-82159019D01*
X140914505Y-82159019D02*
X140914505Y-81159019D01*
X140914505Y-81159019D02*
X140866886Y-81301876D01*
X140866886Y-81301876D02*
X140819267Y-81397114D01*
X140819267Y-81397114D02*
X140771648Y-81444733D01*
X141366885Y-81159019D02*
X141414504Y-81159019D01*
X141414504Y-81159019D02*
X141462123Y-81206638D01*
X141462123Y-81206638D02*
X141485933Y-81254257D01*
X141485933Y-81254257D02*
X141509742Y-81349495D01*
X141509742Y-81349495D02*
X141533552Y-81539971D01*
X141533552Y-81539971D02*
X141533552Y-81778066D01*
X141533552Y-81778066D02*
X141509742Y-81968542D01*
X141509742Y-81968542D02*
X141485933Y-82063780D01*
X141485933Y-82063780D02*
X141462123Y-82111400D01*
X141462123Y-82111400D02*
X141414504Y-82159019D01*
X141414504Y-82159019D02*
X141366885Y-82159019D01*
X141366885Y-82159019D02*
X141319266Y-82111400D01*
X141319266Y-82111400D02*
X141295457Y-82063780D01*
X141295457Y-82063780D02*
X141271647Y-81968542D01*
X141271647Y-81968542D02*
X141247838Y-81778066D01*
X141247838Y-81778066D02*
X141247838Y-81539971D01*
X141247838Y-81539971D02*
X141271647Y-81349495D01*
X141271647Y-81349495D02*
X141295457Y-81254257D01*
X141295457Y-81254257D02*
X141319266Y-81206638D01*
X141319266Y-81206638D02*
X141366885Y-81159019D01*
X140619266Y-71663780D02*
X140595457Y-71711400D01*
X140595457Y-71711400D02*
X140524028Y-71759019D01*
X140524028Y-71759019D02*
X140476409Y-71759019D01*
X140476409Y-71759019D02*
X140404981Y-71711400D01*
X140404981Y-71711400D02*
X140357362Y-71616161D01*
X140357362Y-71616161D02*
X140333552Y-71520923D01*
X140333552Y-71520923D02*
X140309743Y-71330447D01*
X140309743Y-71330447D02*
X140309743Y-71187590D01*
X140309743Y-71187590D02*
X140333552Y-70997114D01*
X140333552Y-70997114D02*
X140357362Y-70901876D01*
X140357362Y-70901876D02*
X140404981Y-70806638D01*
X140404981Y-70806638D02*
X140476409Y-70759019D01*
X140476409Y-70759019D02*
X140524028Y-70759019D01*
X140524028Y-70759019D02*
X140595457Y-70806638D01*
X140595457Y-70806638D02*
X140619266Y-70854257D01*
X141047838Y-71092352D02*
X141047838Y-71759019D01*
X140928790Y-70711400D02*
X140809743Y-71425685D01*
X140809743Y-71425685D02*
X141119266Y-71425685D01*
X147809266Y-74124019D02*
X147571171Y-74124019D01*
X147571171Y-74124019D02*
X147571171Y-73124019D01*
X148237838Y-74124019D02*
X147952124Y-74124019D01*
X148094981Y-74124019D02*
X148094981Y-73124019D01*
X148094981Y-73124019D02*
X148047362Y-73266876D01*
X148047362Y-73266876D02*
X147999743Y-73362114D01*
X147999743Y-73362114D02*
X147952124Y-73409733D01*
X147909266Y-91709019D02*
X147742600Y-91232828D01*
X147623552Y-91709019D02*
X147623552Y-90709019D01*
X147623552Y-90709019D02*
X147814028Y-90709019D01*
X147814028Y-90709019D02*
X147861647Y-90756638D01*
X147861647Y-90756638D02*
X147885457Y-90804257D01*
X147885457Y-90804257D02*
X147909266Y-90899495D01*
X147909266Y-90899495D02*
X147909266Y-91042352D01*
X147909266Y-91042352D02*
X147885457Y-91137590D01*
X147885457Y-91137590D02*
X147861647Y-91185209D01*
X147861647Y-91185209D02*
X147814028Y-91232828D01*
X147814028Y-91232828D02*
X147623552Y-91232828D01*
X148337838Y-90709019D02*
X148242600Y-90709019D01*
X148242600Y-90709019D02*
X148194981Y-90756638D01*
X148194981Y-90756638D02*
X148171171Y-90804257D01*
X148171171Y-90804257D02*
X148123552Y-90947114D01*
X148123552Y-90947114D02*
X148099743Y-91137590D01*
X148099743Y-91137590D02*
X148099743Y-91518542D01*
X148099743Y-91518542D02*
X148123552Y-91613780D01*
X148123552Y-91613780D02*
X148147362Y-91661400D01*
X148147362Y-91661400D02*
X148194981Y-91709019D01*
X148194981Y-91709019D02*
X148290219Y-91709019D01*
X148290219Y-91709019D02*
X148337838Y-91661400D01*
X148337838Y-91661400D02*
X148361647Y-91613780D01*
X148361647Y-91613780D02*
X148385457Y-91518542D01*
X148385457Y-91518542D02*
X148385457Y-91280447D01*
X148385457Y-91280447D02*
X148361647Y-91185209D01*
X148361647Y-91185209D02*
X148337838Y-91137590D01*
X148337838Y-91137590D02*
X148290219Y-91089971D01*
X148290219Y-91089971D02*
X148194981Y-91089971D01*
X148194981Y-91089971D02*
X148147362Y-91137590D01*
X148147362Y-91137590D02*
X148123552Y-91185209D01*
X148123552Y-91185209D02*
X148099743Y-91280447D01*
X134581171Y-99559019D02*
X134414505Y-99082828D01*
X134295457Y-99559019D02*
X134295457Y-98559019D01*
X134295457Y-98559019D02*
X134485933Y-98559019D01*
X134485933Y-98559019D02*
X134533552Y-98606638D01*
X134533552Y-98606638D02*
X134557362Y-98654257D01*
X134557362Y-98654257D02*
X134581171Y-98749495D01*
X134581171Y-98749495D02*
X134581171Y-98892352D01*
X134581171Y-98892352D02*
X134557362Y-98987590D01*
X134557362Y-98987590D02*
X134533552Y-99035209D01*
X134533552Y-99035209D02*
X134485933Y-99082828D01*
X134485933Y-99082828D02*
X134295457Y-99082828D01*
X135057362Y-99559019D02*
X134771648Y-99559019D01*
X134914505Y-99559019D02*
X134914505Y-98559019D01*
X134914505Y-98559019D02*
X134866886Y-98701876D01*
X134866886Y-98701876D02*
X134819267Y-98797114D01*
X134819267Y-98797114D02*
X134771648Y-98844733D01*
X135247838Y-98654257D02*
X135271647Y-98606638D01*
X135271647Y-98606638D02*
X135319266Y-98559019D01*
X135319266Y-98559019D02*
X135438314Y-98559019D01*
X135438314Y-98559019D02*
X135485933Y-98606638D01*
X135485933Y-98606638D02*
X135509742Y-98654257D01*
X135509742Y-98654257D02*
X135533552Y-98749495D01*
X135533552Y-98749495D02*
X135533552Y-98844733D01*
X135533552Y-98844733D02*
X135509742Y-98987590D01*
X135509742Y-98987590D02*
X135224028Y-99559019D01*
X135224028Y-99559019D02*
X135533552Y-99559019D01*
X146071171Y-76063780D02*
X146047362Y-76111400D01*
X146047362Y-76111400D02*
X145975933Y-76159019D01*
X145975933Y-76159019D02*
X145928314Y-76159019D01*
X145928314Y-76159019D02*
X145856886Y-76111400D01*
X145856886Y-76111400D02*
X145809267Y-76016161D01*
X145809267Y-76016161D02*
X145785457Y-75920923D01*
X145785457Y-75920923D02*
X145761648Y-75730447D01*
X145761648Y-75730447D02*
X145761648Y-75587590D01*
X145761648Y-75587590D02*
X145785457Y-75397114D01*
X145785457Y-75397114D02*
X145809267Y-75301876D01*
X145809267Y-75301876D02*
X145856886Y-75206638D01*
X145856886Y-75206638D02*
X145928314Y-75159019D01*
X145928314Y-75159019D02*
X145975933Y-75159019D01*
X145975933Y-75159019D02*
X146047362Y-75206638D01*
X146047362Y-75206638D02*
X146071171Y-75254257D01*
X146547362Y-76159019D02*
X146261648Y-76159019D01*
X146404505Y-76159019D02*
X146404505Y-75159019D01*
X146404505Y-75159019D02*
X146356886Y-75301876D01*
X146356886Y-75301876D02*
X146309267Y-75397114D01*
X146309267Y-75397114D02*
X146261648Y-75444733D01*
X146833076Y-75587590D02*
X146785457Y-75539971D01*
X146785457Y-75539971D02*
X146761647Y-75492352D01*
X146761647Y-75492352D02*
X146737838Y-75397114D01*
X146737838Y-75397114D02*
X146737838Y-75349495D01*
X146737838Y-75349495D02*
X146761647Y-75254257D01*
X146761647Y-75254257D02*
X146785457Y-75206638D01*
X146785457Y-75206638D02*
X146833076Y-75159019D01*
X146833076Y-75159019D02*
X146928314Y-75159019D01*
X146928314Y-75159019D02*
X146975933Y-75206638D01*
X146975933Y-75206638D02*
X146999742Y-75254257D01*
X146999742Y-75254257D02*
X147023552Y-75349495D01*
X147023552Y-75349495D02*
X147023552Y-75397114D01*
X147023552Y-75397114D02*
X146999742Y-75492352D01*
X146999742Y-75492352D02*
X146975933Y-75539971D01*
X146975933Y-75539971D02*
X146928314Y-75587590D01*
X146928314Y-75587590D02*
X146833076Y-75587590D01*
X146833076Y-75587590D02*
X146785457Y-75635209D01*
X146785457Y-75635209D02*
X146761647Y-75682828D01*
X146761647Y-75682828D02*
X146737838Y-75778066D01*
X146737838Y-75778066D02*
X146737838Y-75968542D01*
X146737838Y-75968542D02*
X146761647Y-76063780D01*
X146761647Y-76063780D02*
X146785457Y-76111400D01*
X146785457Y-76111400D02*
X146833076Y-76159019D01*
X146833076Y-76159019D02*
X146928314Y-76159019D01*
X146928314Y-76159019D02*
X146975933Y-76111400D01*
X146975933Y-76111400D02*
X146999742Y-76063780D01*
X146999742Y-76063780D02*
X147023552Y-75968542D01*
X147023552Y-75968542D02*
X147023552Y-75778066D01*
X147023552Y-75778066D02*
X146999742Y-75682828D01*
X146999742Y-75682828D02*
X146975933Y-75635209D01*
X146975933Y-75635209D02*
X146928314Y-75587590D01*
X146419266Y-84159019D02*
X146252600Y-83682828D01*
X146133552Y-84159019D02*
X146133552Y-83159019D01*
X146133552Y-83159019D02*
X146324028Y-83159019D01*
X146324028Y-83159019D02*
X146371647Y-83206638D01*
X146371647Y-83206638D02*
X146395457Y-83254257D01*
X146395457Y-83254257D02*
X146419266Y-83349495D01*
X146419266Y-83349495D02*
X146419266Y-83492352D01*
X146419266Y-83492352D02*
X146395457Y-83587590D01*
X146395457Y-83587590D02*
X146371647Y-83635209D01*
X146371647Y-83635209D02*
X146324028Y-83682828D01*
X146324028Y-83682828D02*
X146133552Y-83682828D01*
X146657362Y-84159019D02*
X146752600Y-84159019D01*
X146752600Y-84159019D02*
X146800219Y-84111400D01*
X146800219Y-84111400D02*
X146824028Y-84063780D01*
X146824028Y-84063780D02*
X146871647Y-83920923D01*
X146871647Y-83920923D02*
X146895457Y-83730447D01*
X146895457Y-83730447D02*
X146895457Y-83349495D01*
X146895457Y-83349495D02*
X146871647Y-83254257D01*
X146871647Y-83254257D02*
X146847838Y-83206638D01*
X146847838Y-83206638D02*
X146800219Y-83159019D01*
X146800219Y-83159019D02*
X146704981Y-83159019D01*
X146704981Y-83159019D02*
X146657362Y-83206638D01*
X146657362Y-83206638D02*
X146633552Y-83254257D01*
X146633552Y-83254257D02*
X146609743Y-83349495D01*
X146609743Y-83349495D02*
X146609743Y-83587590D01*
X146609743Y-83587590D02*
X146633552Y-83682828D01*
X146633552Y-83682828D02*
X146657362Y-83730447D01*
X146657362Y-83730447D02*
X146704981Y-83778066D01*
X146704981Y-83778066D02*
X146800219Y-83778066D01*
X146800219Y-83778066D02*
X146847838Y-83730447D01*
X146847838Y-83730447D02*
X146871647Y-83682828D01*
X146871647Y-83682828D02*
X146895457Y-83587590D01*
X140529266Y-77863780D02*
X140505457Y-77911400D01*
X140505457Y-77911400D02*
X140434028Y-77959019D01*
X140434028Y-77959019D02*
X140386409Y-77959019D01*
X140386409Y-77959019D02*
X140314981Y-77911400D01*
X140314981Y-77911400D02*
X140267362Y-77816161D01*
X140267362Y-77816161D02*
X140243552Y-77720923D01*
X140243552Y-77720923D02*
X140219743Y-77530447D01*
X140219743Y-77530447D02*
X140219743Y-77387590D01*
X140219743Y-77387590D02*
X140243552Y-77197114D01*
X140243552Y-77197114D02*
X140267362Y-77101876D01*
X140267362Y-77101876D02*
X140314981Y-77006638D01*
X140314981Y-77006638D02*
X140386409Y-76959019D01*
X140386409Y-76959019D02*
X140434028Y-76959019D01*
X140434028Y-76959019D02*
X140505457Y-77006638D01*
X140505457Y-77006638D02*
X140529266Y-77054257D01*
X140957838Y-76959019D02*
X140862600Y-76959019D01*
X140862600Y-76959019D02*
X140814981Y-77006638D01*
X140814981Y-77006638D02*
X140791171Y-77054257D01*
X140791171Y-77054257D02*
X140743552Y-77197114D01*
X140743552Y-77197114D02*
X140719743Y-77387590D01*
X140719743Y-77387590D02*
X140719743Y-77768542D01*
X140719743Y-77768542D02*
X140743552Y-77863780D01*
X140743552Y-77863780D02*
X140767362Y-77911400D01*
X140767362Y-77911400D02*
X140814981Y-77959019D01*
X140814981Y-77959019D02*
X140910219Y-77959019D01*
X140910219Y-77959019D02*
X140957838Y-77911400D01*
X140957838Y-77911400D02*
X140981647Y-77863780D01*
X140981647Y-77863780D02*
X141005457Y-77768542D01*
X141005457Y-77768542D02*
X141005457Y-77530447D01*
X141005457Y-77530447D02*
X140981647Y-77435209D01*
X140981647Y-77435209D02*
X140957838Y-77387590D01*
X140957838Y-77387590D02*
X140910219Y-77339971D01*
X140910219Y-77339971D02*
X140814981Y-77339971D01*
X140814981Y-77339971D02*
X140767362Y-77387590D01*
X140767362Y-77387590D02*
X140743552Y-77435209D01*
X140743552Y-77435209D02*
X140719743Y-77530447D01*
X147871171Y-75759019D02*
X147704505Y-75282828D01*
X147585457Y-75759019D02*
X147585457Y-74759019D01*
X147585457Y-74759019D02*
X147775933Y-74759019D01*
X147775933Y-74759019D02*
X147823552Y-74806638D01*
X147823552Y-74806638D02*
X147847362Y-74854257D01*
X147847362Y-74854257D02*
X147871171Y-74949495D01*
X147871171Y-74949495D02*
X147871171Y-75092352D01*
X147871171Y-75092352D02*
X147847362Y-75187590D01*
X147847362Y-75187590D02*
X147823552Y-75235209D01*
X147823552Y-75235209D02*
X147775933Y-75282828D01*
X147775933Y-75282828D02*
X147585457Y-75282828D01*
X148347362Y-75759019D02*
X148061648Y-75759019D01*
X148204505Y-75759019D02*
X148204505Y-74759019D01*
X148204505Y-74759019D02*
X148156886Y-74901876D01*
X148156886Y-74901876D02*
X148109267Y-74997114D01*
X148109267Y-74997114D02*
X148061648Y-75044733D01*
X148775933Y-75092352D02*
X148775933Y-75759019D01*
X148656885Y-74711400D02*
X148537838Y-75425685D01*
X148537838Y-75425685D02*
X148847361Y-75425685D01*
X136819266Y-86263780D02*
X136795457Y-86311400D01*
X136795457Y-86311400D02*
X136724028Y-86359019D01*
X136724028Y-86359019D02*
X136676409Y-86359019D01*
X136676409Y-86359019D02*
X136604981Y-86311400D01*
X136604981Y-86311400D02*
X136557362Y-86216161D01*
X136557362Y-86216161D02*
X136533552Y-86120923D01*
X136533552Y-86120923D02*
X136509743Y-85930447D01*
X136509743Y-85930447D02*
X136509743Y-85787590D01*
X136509743Y-85787590D02*
X136533552Y-85597114D01*
X136533552Y-85597114D02*
X136557362Y-85501876D01*
X136557362Y-85501876D02*
X136604981Y-85406638D01*
X136604981Y-85406638D02*
X136676409Y-85359019D01*
X136676409Y-85359019D02*
X136724028Y-85359019D01*
X136724028Y-85359019D02*
X136795457Y-85406638D01*
X136795457Y-85406638D02*
X136819266Y-85454257D01*
X137057362Y-86359019D02*
X137152600Y-86359019D01*
X137152600Y-86359019D02*
X137200219Y-86311400D01*
X137200219Y-86311400D02*
X137224028Y-86263780D01*
X137224028Y-86263780D02*
X137271647Y-86120923D01*
X137271647Y-86120923D02*
X137295457Y-85930447D01*
X137295457Y-85930447D02*
X137295457Y-85549495D01*
X137295457Y-85549495D02*
X137271647Y-85454257D01*
X137271647Y-85454257D02*
X137247838Y-85406638D01*
X137247838Y-85406638D02*
X137200219Y-85359019D01*
X137200219Y-85359019D02*
X137104981Y-85359019D01*
X137104981Y-85359019D02*
X137057362Y-85406638D01*
X137057362Y-85406638D02*
X137033552Y-85454257D01*
X137033552Y-85454257D02*
X137009743Y-85549495D01*
X137009743Y-85549495D02*
X137009743Y-85787590D01*
X137009743Y-85787590D02*
X137033552Y-85882828D01*
X137033552Y-85882828D02*
X137057362Y-85930447D01*
X137057362Y-85930447D02*
X137104981Y-85978066D01*
X137104981Y-85978066D02*
X137200219Y-85978066D01*
X137200219Y-85978066D02*
X137247838Y-85930447D01*
X137247838Y-85930447D02*
X137271647Y-85882828D01*
X137271647Y-85882828D02*
X137295457Y-85787590D01*
X134281171Y-103663780D02*
X134257362Y-103711400D01*
X134257362Y-103711400D02*
X134185933Y-103759019D01*
X134185933Y-103759019D02*
X134138314Y-103759019D01*
X134138314Y-103759019D02*
X134066886Y-103711400D01*
X134066886Y-103711400D02*
X134019267Y-103616161D01*
X134019267Y-103616161D02*
X133995457Y-103520923D01*
X133995457Y-103520923D02*
X133971648Y-103330447D01*
X133971648Y-103330447D02*
X133971648Y-103187590D01*
X133971648Y-103187590D02*
X133995457Y-102997114D01*
X133995457Y-102997114D02*
X134019267Y-102901876D01*
X134019267Y-102901876D02*
X134066886Y-102806638D01*
X134066886Y-102806638D02*
X134138314Y-102759019D01*
X134138314Y-102759019D02*
X134185933Y-102759019D01*
X134185933Y-102759019D02*
X134257362Y-102806638D01*
X134257362Y-102806638D02*
X134281171Y-102854257D01*
X134757362Y-103759019D02*
X134471648Y-103759019D01*
X134614505Y-103759019D02*
X134614505Y-102759019D01*
X134614505Y-102759019D02*
X134566886Y-102901876D01*
X134566886Y-102901876D02*
X134519267Y-102997114D01*
X134519267Y-102997114D02*
X134471648Y-103044733D01*
X135185933Y-102759019D02*
X135090695Y-102759019D01*
X135090695Y-102759019D02*
X135043076Y-102806638D01*
X135043076Y-102806638D02*
X135019266Y-102854257D01*
X135019266Y-102854257D02*
X134971647Y-102997114D01*
X134971647Y-102997114D02*
X134947838Y-103187590D01*
X134947838Y-103187590D02*
X134947838Y-103568542D01*
X134947838Y-103568542D02*
X134971647Y-103663780D01*
X134971647Y-103663780D02*
X134995457Y-103711400D01*
X134995457Y-103711400D02*
X135043076Y-103759019D01*
X135043076Y-103759019D02*
X135138314Y-103759019D01*
X135138314Y-103759019D02*
X135185933Y-103711400D01*
X135185933Y-103711400D02*
X135209742Y-103663780D01*
X135209742Y-103663780D02*
X135233552Y-103568542D01*
X135233552Y-103568542D02*
X135233552Y-103330447D01*
X135233552Y-103330447D02*
X135209742Y-103235209D01*
X135209742Y-103235209D02*
X135185933Y-103187590D01*
X135185933Y-103187590D02*
X135138314Y-103139971D01*
X135138314Y-103139971D02*
X135043076Y-103139971D01*
X135043076Y-103139971D02*
X134995457Y-103187590D01*
X134995457Y-103187590D02*
X134971647Y-103235209D01*
X134971647Y-103235209D02*
X134947838Y-103330447D01*
X133048552Y-67589019D02*
X133048552Y-66589019D01*
X133048552Y-66589019D02*
X133167600Y-66589019D01*
X133167600Y-66589019D02*
X133239028Y-66636638D01*
X133239028Y-66636638D02*
X133286647Y-66731876D01*
X133286647Y-66731876D02*
X133310457Y-66827114D01*
X133310457Y-66827114D02*
X133334266Y-67017590D01*
X133334266Y-67017590D02*
X133334266Y-67160447D01*
X133334266Y-67160447D02*
X133310457Y-67350923D01*
X133310457Y-67350923D02*
X133286647Y-67446161D01*
X133286647Y-67446161D02*
X133239028Y-67541400D01*
X133239028Y-67541400D02*
X133167600Y-67589019D01*
X133167600Y-67589019D02*
X133048552Y-67589019D01*
X133524743Y-66684257D02*
X133548552Y-66636638D01*
X133548552Y-66636638D02*
X133596171Y-66589019D01*
X133596171Y-66589019D02*
X133715219Y-66589019D01*
X133715219Y-66589019D02*
X133762838Y-66636638D01*
X133762838Y-66636638D02*
X133786647Y-66684257D01*
X133786647Y-66684257D02*
X133810457Y-66779495D01*
X133810457Y-66779495D02*
X133810457Y-66874733D01*
X133810457Y-66874733D02*
X133786647Y-67017590D01*
X133786647Y-67017590D02*
X133500933Y-67589019D01*
X133500933Y-67589019D02*
X133810457Y-67589019D01*
X138631171Y-98759019D02*
X138464505Y-98282828D01*
X138345457Y-98759019D02*
X138345457Y-97759019D01*
X138345457Y-97759019D02*
X138535933Y-97759019D01*
X138535933Y-97759019D02*
X138583552Y-97806638D01*
X138583552Y-97806638D02*
X138607362Y-97854257D01*
X138607362Y-97854257D02*
X138631171Y-97949495D01*
X138631171Y-97949495D02*
X138631171Y-98092352D01*
X138631171Y-98092352D02*
X138607362Y-98187590D01*
X138607362Y-98187590D02*
X138583552Y-98235209D01*
X138583552Y-98235209D02*
X138535933Y-98282828D01*
X138535933Y-98282828D02*
X138345457Y-98282828D01*
X139107362Y-98759019D02*
X138821648Y-98759019D01*
X138964505Y-98759019D02*
X138964505Y-97759019D01*
X138964505Y-97759019D02*
X138916886Y-97901876D01*
X138916886Y-97901876D02*
X138869267Y-97997114D01*
X138869267Y-97997114D02*
X138821648Y-98044733D01*
X139274028Y-97759019D02*
X139583552Y-97759019D01*
X139583552Y-97759019D02*
X139416885Y-98139971D01*
X139416885Y-98139971D02*
X139488314Y-98139971D01*
X139488314Y-98139971D02*
X139535933Y-98187590D01*
X139535933Y-98187590D02*
X139559742Y-98235209D01*
X139559742Y-98235209D02*
X139583552Y-98330447D01*
X139583552Y-98330447D02*
X139583552Y-98568542D01*
X139583552Y-98568542D02*
X139559742Y-98663780D01*
X139559742Y-98663780D02*
X139535933Y-98711400D01*
X139535933Y-98711400D02*
X139488314Y-98759019D01*
X139488314Y-98759019D02*
X139345457Y-98759019D01*
X139345457Y-98759019D02*
X139297838Y-98711400D01*
X139297838Y-98711400D02*
X139274028Y-98663780D01*
X147581171Y-87159019D02*
X147414505Y-86682828D01*
X147295457Y-87159019D02*
X147295457Y-86159019D01*
X147295457Y-86159019D02*
X147485933Y-86159019D01*
X147485933Y-86159019D02*
X147533552Y-86206638D01*
X147533552Y-86206638D02*
X147557362Y-86254257D01*
X147557362Y-86254257D02*
X147581171Y-86349495D01*
X147581171Y-86349495D02*
X147581171Y-86492352D01*
X147581171Y-86492352D02*
X147557362Y-86587590D01*
X147557362Y-86587590D02*
X147533552Y-86635209D01*
X147533552Y-86635209D02*
X147485933Y-86682828D01*
X147485933Y-86682828D02*
X147295457Y-86682828D01*
X148057362Y-87159019D02*
X147771648Y-87159019D01*
X147914505Y-87159019D02*
X147914505Y-86159019D01*
X147914505Y-86159019D02*
X147866886Y-86301876D01*
X147866886Y-86301876D02*
X147819267Y-86397114D01*
X147819267Y-86397114D02*
X147771648Y-86444733D01*
X148509742Y-86159019D02*
X148271647Y-86159019D01*
X148271647Y-86159019D02*
X148247838Y-86635209D01*
X148247838Y-86635209D02*
X148271647Y-86587590D01*
X148271647Y-86587590D02*
X148319266Y-86539971D01*
X148319266Y-86539971D02*
X148438314Y-86539971D01*
X148438314Y-86539971D02*
X148485933Y-86587590D01*
X148485933Y-86587590D02*
X148509742Y-86635209D01*
X148509742Y-86635209D02*
X148533552Y-86730447D01*
X148533552Y-86730447D02*
X148533552Y-86968542D01*
X148533552Y-86968542D02*
X148509742Y-87063780D01*
X148509742Y-87063780D02*
X148485933Y-87111400D01*
X148485933Y-87111400D02*
X148438314Y-87159019D01*
X148438314Y-87159019D02*
X148319266Y-87159019D01*
X148319266Y-87159019D02*
X148271647Y-87111400D01*
X148271647Y-87111400D02*
X148247838Y-87063780D01*
X132419266Y-81999019D02*
X132252600Y-81522828D01*
X132133552Y-81999019D02*
X132133552Y-80999019D01*
X132133552Y-80999019D02*
X132324028Y-80999019D01*
X132324028Y-80999019D02*
X132371647Y-81046638D01*
X132371647Y-81046638D02*
X132395457Y-81094257D01*
X132395457Y-81094257D02*
X132419266Y-81189495D01*
X132419266Y-81189495D02*
X132419266Y-81332352D01*
X132419266Y-81332352D02*
X132395457Y-81427590D01*
X132395457Y-81427590D02*
X132371647Y-81475209D01*
X132371647Y-81475209D02*
X132324028Y-81522828D01*
X132324028Y-81522828D02*
X132133552Y-81522828D01*
X132895457Y-81999019D02*
X132609743Y-81999019D01*
X132752600Y-81999019D02*
X132752600Y-80999019D01*
X132752600Y-80999019D02*
X132704981Y-81141876D01*
X132704981Y-81141876D02*
X132657362Y-81237114D01*
X132657362Y-81237114D02*
X132609743Y-81284733D01*
X140121647Y-73759019D02*
X140121647Y-74568542D01*
X140121647Y-74568542D02*
X140145457Y-74663780D01*
X140145457Y-74663780D02*
X140169266Y-74711400D01*
X140169266Y-74711400D02*
X140216885Y-74759019D01*
X140216885Y-74759019D02*
X140312123Y-74759019D01*
X140312123Y-74759019D02*
X140359742Y-74711400D01*
X140359742Y-74711400D02*
X140383552Y-74663780D01*
X140383552Y-74663780D02*
X140407361Y-74568542D01*
X140407361Y-74568542D02*
X140407361Y-73759019D01*
X140907362Y-74759019D02*
X140621648Y-74759019D01*
X140764505Y-74759019D02*
X140764505Y-73759019D01*
X140764505Y-73759019D02*
X140716886Y-73901876D01*
X140716886Y-73901876D02*
X140669267Y-73997114D01*
X140669267Y-73997114D02*
X140621648Y-74044733D01*
X132419266Y-84219019D02*
X132252600Y-83742828D01*
X132133552Y-84219019D02*
X132133552Y-83219019D01*
X132133552Y-83219019D02*
X132324028Y-83219019D01*
X132324028Y-83219019D02*
X132371647Y-83266638D01*
X132371647Y-83266638D02*
X132395457Y-83314257D01*
X132395457Y-83314257D02*
X132419266Y-83409495D01*
X132419266Y-83409495D02*
X132419266Y-83552352D01*
X132419266Y-83552352D02*
X132395457Y-83647590D01*
X132395457Y-83647590D02*
X132371647Y-83695209D01*
X132371647Y-83695209D02*
X132324028Y-83742828D01*
X132324028Y-83742828D02*
X132133552Y-83742828D01*
X132609743Y-83314257D02*
X132633552Y-83266638D01*
X132633552Y-83266638D02*
X132681171Y-83219019D01*
X132681171Y-83219019D02*
X132800219Y-83219019D01*
X132800219Y-83219019D02*
X132847838Y-83266638D01*
X132847838Y-83266638D02*
X132871647Y-83314257D01*
X132871647Y-83314257D02*
X132895457Y-83409495D01*
X132895457Y-83409495D02*
X132895457Y-83504733D01*
X132895457Y-83504733D02*
X132871647Y-83647590D01*
X132871647Y-83647590D02*
X132585933Y-84219019D01*
X132585933Y-84219019D02*
X132895457Y-84219019D01*
X138381171Y-84063780D02*
X138357362Y-84111400D01*
X138357362Y-84111400D02*
X138285933Y-84159019D01*
X138285933Y-84159019D02*
X138238314Y-84159019D01*
X138238314Y-84159019D02*
X138166886Y-84111400D01*
X138166886Y-84111400D02*
X138119267Y-84016161D01*
X138119267Y-84016161D02*
X138095457Y-83920923D01*
X138095457Y-83920923D02*
X138071648Y-83730447D01*
X138071648Y-83730447D02*
X138071648Y-83587590D01*
X138071648Y-83587590D02*
X138095457Y-83397114D01*
X138095457Y-83397114D02*
X138119267Y-83301876D01*
X138119267Y-83301876D02*
X138166886Y-83206638D01*
X138166886Y-83206638D02*
X138238314Y-83159019D01*
X138238314Y-83159019D02*
X138285933Y-83159019D01*
X138285933Y-83159019D02*
X138357362Y-83206638D01*
X138357362Y-83206638D02*
X138381171Y-83254257D01*
X138857362Y-84159019D02*
X138571648Y-84159019D01*
X138714505Y-84159019D02*
X138714505Y-83159019D01*
X138714505Y-83159019D02*
X138666886Y-83301876D01*
X138666886Y-83301876D02*
X138619267Y-83397114D01*
X138619267Y-83397114D02*
X138571648Y-83444733D01*
X139333552Y-84159019D02*
X139047838Y-84159019D01*
X139190695Y-84159019D02*
X139190695Y-83159019D01*
X139190695Y-83159019D02*
X139143076Y-83301876D01*
X139143076Y-83301876D02*
X139095457Y-83397114D01*
X139095457Y-83397114D02*
X139047838Y-83444733D01*
X139581171Y-103063780D02*
X139557362Y-103111400D01*
X139557362Y-103111400D02*
X139485933Y-103159019D01*
X139485933Y-103159019D02*
X139438314Y-103159019D01*
X139438314Y-103159019D02*
X139366886Y-103111400D01*
X139366886Y-103111400D02*
X139319267Y-103016161D01*
X139319267Y-103016161D02*
X139295457Y-102920923D01*
X139295457Y-102920923D02*
X139271648Y-102730447D01*
X139271648Y-102730447D02*
X139271648Y-102587590D01*
X139271648Y-102587590D02*
X139295457Y-102397114D01*
X139295457Y-102397114D02*
X139319267Y-102301876D01*
X139319267Y-102301876D02*
X139366886Y-102206638D01*
X139366886Y-102206638D02*
X139438314Y-102159019D01*
X139438314Y-102159019D02*
X139485933Y-102159019D01*
X139485933Y-102159019D02*
X139557362Y-102206638D01*
X139557362Y-102206638D02*
X139581171Y-102254257D01*
X140057362Y-103159019D02*
X139771648Y-103159019D01*
X139914505Y-103159019D02*
X139914505Y-102159019D01*
X139914505Y-102159019D02*
X139866886Y-102301876D01*
X139866886Y-102301876D02*
X139819267Y-102397114D01*
X139819267Y-102397114D02*
X139771648Y-102444733D01*
X140224028Y-102159019D02*
X140557361Y-102159019D01*
X140557361Y-102159019D02*
X140343076Y-103159019D01*
X141219266Y-96063780D02*
X141195457Y-96111400D01*
X141195457Y-96111400D02*
X141124028Y-96159019D01*
X141124028Y-96159019D02*
X141076409Y-96159019D01*
X141076409Y-96159019D02*
X141004981Y-96111400D01*
X141004981Y-96111400D02*
X140957362Y-96016161D01*
X140957362Y-96016161D02*
X140933552Y-95920923D01*
X140933552Y-95920923D02*
X140909743Y-95730447D01*
X140909743Y-95730447D02*
X140909743Y-95587590D01*
X140909743Y-95587590D02*
X140933552Y-95397114D01*
X140933552Y-95397114D02*
X140957362Y-95301876D01*
X140957362Y-95301876D02*
X141004981Y-95206638D01*
X141004981Y-95206638D02*
X141076409Y-95159019D01*
X141076409Y-95159019D02*
X141124028Y-95159019D01*
X141124028Y-95159019D02*
X141195457Y-95206638D01*
X141195457Y-95206638D02*
X141219266Y-95254257D01*
X141671647Y-95159019D02*
X141433552Y-95159019D01*
X141433552Y-95159019D02*
X141409743Y-95635209D01*
X141409743Y-95635209D02*
X141433552Y-95587590D01*
X141433552Y-95587590D02*
X141481171Y-95539971D01*
X141481171Y-95539971D02*
X141600219Y-95539971D01*
X141600219Y-95539971D02*
X141647838Y-95587590D01*
X141647838Y-95587590D02*
X141671647Y-95635209D01*
X141671647Y-95635209D02*
X141695457Y-95730447D01*
X141695457Y-95730447D02*
X141695457Y-95968542D01*
X141695457Y-95968542D02*
X141671647Y-96063780D01*
X141671647Y-96063780D02*
X141647838Y-96111400D01*
X141647838Y-96111400D02*
X141600219Y-96159019D01*
X141600219Y-96159019D02*
X141481171Y-96159019D01*
X141481171Y-96159019D02*
X141433552Y-96111400D01*
X141433552Y-96111400D02*
X141409743Y-96063780D01*
X143181171Y-84063780D02*
X143157362Y-84111400D01*
X143157362Y-84111400D02*
X143085933Y-84159019D01*
X143085933Y-84159019D02*
X143038314Y-84159019D01*
X143038314Y-84159019D02*
X142966886Y-84111400D01*
X142966886Y-84111400D02*
X142919267Y-84016161D01*
X142919267Y-84016161D02*
X142895457Y-83920923D01*
X142895457Y-83920923D02*
X142871648Y-83730447D01*
X142871648Y-83730447D02*
X142871648Y-83587590D01*
X142871648Y-83587590D02*
X142895457Y-83397114D01*
X142895457Y-83397114D02*
X142919267Y-83301876D01*
X142919267Y-83301876D02*
X142966886Y-83206638D01*
X142966886Y-83206638D02*
X143038314Y-83159019D01*
X143038314Y-83159019D02*
X143085933Y-83159019D01*
X143085933Y-83159019D02*
X143157362Y-83206638D01*
X143157362Y-83206638D02*
X143181171Y-83254257D01*
X143657362Y-84159019D02*
X143371648Y-84159019D01*
X143514505Y-84159019D02*
X143514505Y-83159019D01*
X143514505Y-83159019D02*
X143466886Y-83301876D01*
X143466886Y-83301876D02*
X143419267Y-83397114D01*
X143419267Y-83397114D02*
X143371648Y-83444733D01*
X143847838Y-83254257D02*
X143871647Y-83206638D01*
X143871647Y-83206638D02*
X143919266Y-83159019D01*
X143919266Y-83159019D02*
X144038314Y-83159019D01*
X144038314Y-83159019D02*
X144085933Y-83206638D01*
X144085933Y-83206638D02*
X144109742Y-83254257D01*
X144109742Y-83254257D02*
X144133552Y-83349495D01*
X144133552Y-83349495D02*
X144133552Y-83444733D01*
X144133552Y-83444733D02*
X144109742Y-83587590D01*
X144109742Y-83587590D02*
X143824028Y-84159019D01*
X143824028Y-84159019D02*
X144133552Y-84159019D01*
X132271171Y-87413780D02*
X132247362Y-87461400D01*
X132247362Y-87461400D02*
X132175933Y-87509019D01*
X132175933Y-87509019D02*
X132128314Y-87509019D01*
X132128314Y-87509019D02*
X132056886Y-87461400D01*
X132056886Y-87461400D02*
X132009267Y-87366161D01*
X132009267Y-87366161D02*
X131985457Y-87270923D01*
X131985457Y-87270923D02*
X131961648Y-87080447D01*
X131961648Y-87080447D02*
X131961648Y-86937590D01*
X131961648Y-86937590D02*
X131985457Y-86747114D01*
X131985457Y-86747114D02*
X132009267Y-86651876D01*
X132009267Y-86651876D02*
X132056886Y-86556638D01*
X132056886Y-86556638D02*
X132128314Y-86509019D01*
X132128314Y-86509019D02*
X132175933Y-86509019D01*
X132175933Y-86509019D02*
X132247362Y-86556638D01*
X132247362Y-86556638D02*
X132271171Y-86604257D01*
X132747362Y-87509019D02*
X132461648Y-87509019D01*
X132604505Y-87509019D02*
X132604505Y-86509019D01*
X132604505Y-86509019D02*
X132556886Y-86651876D01*
X132556886Y-86651876D02*
X132509267Y-86747114D01*
X132509267Y-86747114D02*
X132461648Y-86794733D01*
X133199742Y-86509019D02*
X132961647Y-86509019D01*
X132961647Y-86509019D02*
X132937838Y-86985209D01*
X132937838Y-86985209D02*
X132961647Y-86937590D01*
X132961647Y-86937590D02*
X133009266Y-86889971D01*
X133009266Y-86889971D02*
X133128314Y-86889971D01*
X133128314Y-86889971D02*
X133175933Y-86937590D01*
X133175933Y-86937590D02*
X133199742Y-86985209D01*
X133199742Y-86985209D02*
X133223552Y-87080447D01*
X133223552Y-87080447D02*
X133223552Y-87318542D01*
X133223552Y-87318542D02*
X133199742Y-87413780D01*
X133199742Y-87413780D02*
X133175933Y-87461400D01*
X133175933Y-87461400D02*
X133128314Y-87509019D01*
X133128314Y-87509019D02*
X133009266Y-87509019D01*
X133009266Y-87509019D02*
X132961647Y-87461400D01*
X132961647Y-87461400D02*
X132937838Y-87413780D01*
X138419266Y-96063780D02*
X138395457Y-96111400D01*
X138395457Y-96111400D02*
X138324028Y-96159019D01*
X138324028Y-96159019D02*
X138276409Y-96159019D01*
X138276409Y-96159019D02*
X138204981Y-96111400D01*
X138204981Y-96111400D02*
X138157362Y-96016161D01*
X138157362Y-96016161D02*
X138133552Y-95920923D01*
X138133552Y-95920923D02*
X138109743Y-95730447D01*
X138109743Y-95730447D02*
X138109743Y-95587590D01*
X138109743Y-95587590D02*
X138133552Y-95397114D01*
X138133552Y-95397114D02*
X138157362Y-95301876D01*
X138157362Y-95301876D02*
X138204981Y-95206638D01*
X138204981Y-95206638D02*
X138276409Y-95159019D01*
X138276409Y-95159019D02*
X138324028Y-95159019D01*
X138324028Y-95159019D02*
X138395457Y-95206638D01*
X138395457Y-95206638D02*
X138419266Y-95254257D01*
X138895457Y-96159019D02*
X138609743Y-96159019D01*
X138752600Y-96159019D02*
X138752600Y-95159019D01*
X138752600Y-95159019D02*
X138704981Y-95301876D01*
X138704981Y-95301876D02*
X138657362Y-95397114D01*
X138657362Y-95397114D02*
X138609743Y-95444733D01*
X144781171Y-84063780D02*
X144757362Y-84111400D01*
X144757362Y-84111400D02*
X144685933Y-84159019D01*
X144685933Y-84159019D02*
X144638314Y-84159019D01*
X144638314Y-84159019D02*
X144566886Y-84111400D01*
X144566886Y-84111400D02*
X144519267Y-84016161D01*
X144519267Y-84016161D02*
X144495457Y-83920923D01*
X144495457Y-83920923D02*
X144471648Y-83730447D01*
X144471648Y-83730447D02*
X144471648Y-83587590D01*
X144471648Y-83587590D02*
X144495457Y-83397114D01*
X144495457Y-83397114D02*
X144519267Y-83301876D01*
X144519267Y-83301876D02*
X144566886Y-83206638D01*
X144566886Y-83206638D02*
X144638314Y-83159019D01*
X144638314Y-83159019D02*
X144685933Y-83159019D01*
X144685933Y-83159019D02*
X144757362Y-83206638D01*
X144757362Y-83206638D02*
X144781171Y-83254257D01*
X145257362Y-84159019D02*
X144971648Y-84159019D01*
X145114505Y-84159019D02*
X145114505Y-83159019D01*
X145114505Y-83159019D02*
X145066886Y-83301876D01*
X145066886Y-83301876D02*
X145019267Y-83397114D01*
X145019267Y-83397114D02*
X144971648Y-83444733D01*
X145685933Y-83492352D02*
X145685933Y-84159019D01*
X145566885Y-83111400D02*
X145447838Y-83825685D01*
X145447838Y-83825685D02*
X145757361Y-83825685D01*
X134181171Y-79583780D02*
X134157362Y-79631400D01*
X134157362Y-79631400D02*
X134085933Y-79679019D01*
X134085933Y-79679019D02*
X134038314Y-79679019D01*
X134038314Y-79679019D02*
X133966886Y-79631400D01*
X133966886Y-79631400D02*
X133919267Y-79536161D01*
X133919267Y-79536161D02*
X133895457Y-79440923D01*
X133895457Y-79440923D02*
X133871648Y-79250447D01*
X133871648Y-79250447D02*
X133871648Y-79107590D01*
X133871648Y-79107590D02*
X133895457Y-78917114D01*
X133895457Y-78917114D02*
X133919267Y-78821876D01*
X133919267Y-78821876D02*
X133966886Y-78726638D01*
X133966886Y-78726638D02*
X134038314Y-78679019D01*
X134038314Y-78679019D02*
X134085933Y-78679019D01*
X134085933Y-78679019D02*
X134157362Y-78726638D01*
X134157362Y-78726638D02*
X134181171Y-78774257D01*
X134657362Y-79679019D02*
X134371648Y-79679019D01*
X134514505Y-79679019D02*
X134514505Y-78679019D01*
X134514505Y-78679019D02*
X134466886Y-78821876D01*
X134466886Y-78821876D02*
X134419267Y-78917114D01*
X134419267Y-78917114D02*
X134371648Y-78964733D01*
X134824028Y-78679019D02*
X135133552Y-78679019D01*
X135133552Y-78679019D02*
X134966885Y-79059971D01*
X134966885Y-79059971D02*
X135038314Y-79059971D01*
X135038314Y-79059971D02*
X135085933Y-79107590D01*
X135085933Y-79107590D02*
X135109742Y-79155209D01*
X135109742Y-79155209D02*
X135133552Y-79250447D01*
X135133552Y-79250447D02*
X135133552Y-79488542D01*
X135133552Y-79488542D02*
X135109742Y-79583780D01*
X135109742Y-79583780D02*
X135085933Y-79631400D01*
X135085933Y-79631400D02*
X135038314Y-79679019D01*
X135038314Y-79679019D02*
X134895457Y-79679019D01*
X134895457Y-79679019D02*
X134847838Y-79631400D01*
X134847838Y-79631400D02*
X134824028Y-79583780D01*
X143709266Y-82809019D02*
X143542600Y-82332828D01*
X143423552Y-82809019D02*
X143423552Y-81809019D01*
X143423552Y-81809019D02*
X143614028Y-81809019D01*
X143614028Y-81809019D02*
X143661647Y-81856638D01*
X143661647Y-81856638D02*
X143685457Y-81904257D01*
X143685457Y-81904257D02*
X143709266Y-81999495D01*
X143709266Y-81999495D02*
X143709266Y-82142352D01*
X143709266Y-82142352D02*
X143685457Y-82237590D01*
X143685457Y-82237590D02*
X143661647Y-82285209D01*
X143661647Y-82285209D02*
X143614028Y-82332828D01*
X143614028Y-82332828D02*
X143423552Y-82332828D01*
X143994981Y-82237590D02*
X143947362Y-82189971D01*
X143947362Y-82189971D02*
X143923552Y-82142352D01*
X143923552Y-82142352D02*
X143899743Y-82047114D01*
X143899743Y-82047114D02*
X143899743Y-81999495D01*
X143899743Y-81999495D02*
X143923552Y-81904257D01*
X143923552Y-81904257D02*
X143947362Y-81856638D01*
X143947362Y-81856638D02*
X143994981Y-81809019D01*
X143994981Y-81809019D02*
X144090219Y-81809019D01*
X144090219Y-81809019D02*
X144137838Y-81856638D01*
X144137838Y-81856638D02*
X144161647Y-81904257D01*
X144161647Y-81904257D02*
X144185457Y-81999495D01*
X144185457Y-81999495D02*
X144185457Y-82047114D01*
X144185457Y-82047114D02*
X144161647Y-82142352D01*
X144161647Y-82142352D02*
X144137838Y-82189971D01*
X144137838Y-82189971D02*
X144090219Y-82237590D01*
X144090219Y-82237590D02*
X143994981Y-82237590D01*
X143994981Y-82237590D02*
X143947362Y-82285209D01*
X143947362Y-82285209D02*
X143923552Y-82332828D01*
X143923552Y-82332828D02*
X143899743Y-82428066D01*
X143899743Y-82428066D02*
X143899743Y-82618542D01*
X143899743Y-82618542D02*
X143923552Y-82713780D01*
X143923552Y-82713780D02*
X143947362Y-82761400D01*
X143947362Y-82761400D02*
X143994981Y-82809019D01*
X143994981Y-82809019D02*
X144090219Y-82809019D01*
X144090219Y-82809019D02*
X144137838Y-82761400D01*
X144137838Y-82761400D02*
X144161647Y-82713780D01*
X144161647Y-82713780D02*
X144185457Y-82618542D01*
X144185457Y-82618542D02*
X144185457Y-82428066D01*
X144185457Y-82428066D02*
X144161647Y-82332828D01*
X144161647Y-82332828D02*
X144137838Y-82285209D01*
X144137838Y-82285209D02*
X144090219Y-82237590D01*
X136697838Y-103159019D02*
X137031171Y-104159019D01*
X137031171Y-103159019D02*
X136697838Y-104159019D01*
X137483552Y-104159019D02*
X137197838Y-104159019D01*
X137340695Y-104159019D02*
X137340695Y-103159019D01*
X137340695Y-103159019D02*
X137293076Y-103301876D01*
X137293076Y-103301876D02*
X137245457Y-103397114D01*
X137245457Y-103397114D02*
X137197838Y-103444733D01*
X139419266Y-82159019D02*
X139252600Y-81682828D01*
X139133552Y-82159019D02*
X139133552Y-81159019D01*
X139133552Y-81159019D02*
X139324028Y-81159019D01*
X139324028Y-81159019D02*
X139371647Y-81206638D01*
X139371647Y-81206638D02*
X139395457Y-81254257D01*
X139395457Y-81254257D02*
X139419266Y-81349495D01*
X139419266Y-81349495D02*
X139419266Y-81492352D01*
X139419266Y-81492352D02*
X139395457Y-81587590D01*
X139395457Y-81587590D02*
X139371647Y-81635209D01*
X139371647Y-81635209D02*
X139324028Y-81682828D01*
X139324028Y-81682828D02*
X139133552Y-81682828D01*
X139585933Y-81159019D02*
X139919266Y-81159019D01*
X139919266Y-81159019D02*
X139704981Y-82159019D01*
X138239266Y-70359019D02*
X138072600Y-69882828D01*
X137953552Y-70359019D02*
X137953552Y-69359019D01*
X137953552Y-69359019D02*
X138144028Y-69359019D01*
X138144028Y-69359019D02*
X138191647Y-69406638D01*
X138191647Y-69406638D02*
X138215457Y-69454257D01*
X138215457Y-69454257D02*
X138239266Y-69549495D01*
X138239266Y-69549495D02*
X138239266Y-69692352D01*
X138239266Y-69692352D02*
X138215457Y-69787590D01*
X138215457Y-69787590D02*
X138191647Y-69835209D01*
X138191647Y-69835209D02*
X138144028Y-69882828D01*
X138144028Y-69882828D02*
X137953552Y-69882828D01*
X138405933Y-69359019D02*
X138715457Y-69359019D01*
X138715457Y-69359019D02*
X138548790Y-69739971D01*
X138548790Y-69739971D02*
X138620219Y-69739971D01*
X138620219Y-69739971D02*
X138667838Y-69787590D01*
X138667838Y-69787590D02*
X138691647Y-69835209D01*
X138691647Y-69835209D02*
X138715457Y-69930447D01*
X138715457Y-69930447D02*
X138715457Y-70168542D01*
X138715457Y-70168542D02*
X138691647Y-70263780D01*
X138691647Y-70263780D02*
X138667838Y-70311400D01*
X138667838Y-70311400D02*
X138620219Y-70359019D01*
X138620219Y-70359019D02*
X138477362Y-70359019D01*
X138477362Y-70359019D02*
X138429743Y-70311400D01*
X138429743Y-70311400D02*
X138405933Y-70263780D01*
X138201171Y-71559019D02*
X138034505Y-71082828D01*
X137915457Y-71559019D02*
X137915457Y-70559019D01*
X137915457Y-70559019D02*
X138105933Y-70559019D01*
X138105933Y-70559019D02*
X138153552Y-70606638D01*
X138153552Y-70606638D02*
X138177362Y-70654257D01*
X138177362Y-70654257D02*
X138201171Y-70749495D01*
X138201171Y-70749495D02*
X138201171Y-70892352D01*
X138201171Y-70892352D02*
X138177362Y-70987590D01*
X138177362Y-70987590D02*
X138153552Y-71035209D01*
X138153552Y-71035209D02*
X138105933Y-71082828D01*
X138105933Y-71082828D02*
X137915457Y-71082828D01*
X138677362Y-71559019D02*
X138391648Y-71559019D01*
X138534505Y-71559019D02*
X138534505Y-70559019D01*
X138534505Y-70559019D02*
X138486886Y-70701876D01*
X138486886Y-70701876D02*
X138439267Y-70797114D01*
X138439267Y-70797114D02*
X138391648Y-70844733D01*
X139153552Y-71559019D02*
X138867838Y-71559019D01*
X139010695Y-71559019D02*
X139010695Y-70559019D01*
X139010695Y-70559019D02*
X138963076Y-70701876D01*
X138963076Y-70701876D02*
X138915457Y-70797114D01*
X138915457Y-70797114D02*
X138867838Y-70844733D01*
X146092275Y-94259300D02*
X146039131Y-94262490D01*
X146039131Y-94262490D02*
X145962177Y-94224441D01*
X145962177Y-94224441D02*
X145938368Y-94183202D01*
X145938368Y-94183202D02*
X145943893Y-94097533D01*
X145943893Y-94097533D02*
X146002562Y-94008675D01*
X146002562Y-94008675D02*
X146073136Y-93940436D01*
X146073136Y-93940436D02*
X146226188Y-93824578D01*
X146226188Y-93824578D02*
X146349906Y-93753150D01*
X146349906Y-93753150D02*
X146526768Y-93678531D01*
X146526768Y-93678531D02*
X146621152Y-93651532D01*
X146621152Y-93651532D02*
X146727440Y-93645152D01*
X146727440Y-93645152D02*
X146804393Y-93683202D01*
X146804393Y-93683202D02*
X146828203Y-93724441D01*
X146828203Y-93724441D02*
X146822678Y-93810109D01*
X146822678Y-93810109D02*
X146793343Y-93854538D01*
X146647525Y-94268641D02*
X146664955Y-94203592D01*
X146664955Y-94203592D02*
X146694290Y-94159163D01*
X146694290Y-94159163D02*
X146764863Y-94090924D01*
X146764863Y-94090924D02*
X146806103Y-94067115D01*
X146806103Y-94067115D02*
X146900486Y-94040115D01*
X146900486Y-94040115D02*
X146953630Y-94036925D01*
X146953630Y-94036925D02*
X147018679Y-94054355D01*
X147018679Y-94054355D02*
X147066298Y-94136834D01*
X147066298Y-94136834D02*
X147048868Y-94201883D01*
X147048868Y-94201883D02*
X147019534Y-94246312D01*
X147019534Y-94246312D02*
X146948960Y-94314551D01*
X146948960Y-94314551D02*
X146907721Y-94338360D01*
X146907721Y-94338360D02*
X146813337Y-94365360D01*
X146813337Y-94365360D02*
X146760193Y-94368549D01*
X146760193Y-94368549D02*
X146695144Y-94351120D01*
X146695144Y-94351120D02*
X146647525Y-94268641D01*
X146647525Y-94268641D02*
X146582476Y-94251211D01*
X146582476Y-94251211D02*
X146529332Y-94254401D01*
X146529332Y-94254401D02*
X146434949Y-94281400D01*
X146434949Y-94281400D02*
X146269992Y-94376639D01*
X146269992Y-94376639D02*
X146199418Y-94444877D01*
X146199418Y-94444877D02*
X146170083Y-94489306D01*
X146170083Y-94489306D02*
X146152654Y-94554355D01*
X146152654Y-94554355D02*
X146200273Y-94636834D01*
X146200273Y-94636834D02*
X146265321Y-94654264D01*
X146265321Y-94654264D02*
X146318466Y-94651074D01*
X146318466Y-94651074D02*
X146412849Y-94624074D01*
X146412849Y-94624074D02*
X146577806Y-94528836D01*
X146577806Y-94528836D02*
X146648380Y-94460598D01*
X146648380Y-94460598D02*
X146677715Y-94416168D01*
X146677715Y-94416168D02*
X146695144Y-94351120D01*
D11*
%TO.C,Q1*%
X146202600Y-80201600D02*
X146202600Y-81501600D01*
X148002600Y-80201600D02*
X148002600Y-81501600D01*
D12*
X146667600Y-82101600D02*
G75*
G02*
X146517600Y-82101600I-75000J0D01*
G01*
X146517600Y-82101600D02*
G75*
G02*
X146667600Y-82101600I75000J0D01*
G01*
D11*
%TO.C,R5*%
X146328959Y-89471600D02*
X146636241Y-89471600D01*
X146328959Y-90231600D02*
X146636241Y-90231600D01*
D13*
%TO.C,D1*%
X145863900Y-68113500D02*
X145863900Y-71263100D01*
X147921300Y-71263100D02*
X147921300Y-68113500D01*
D11*
%TO.C,R4*%
X143346241Y-69321600D02*
X143038959Y-69321600D01*
X143346241Y-70081600D02*
X143038959Y-70081600D01*
D13*
%TO.C,U3*%
X134961500Y-81245255D02*
X134961500Y-83057945D01*
X137323700Y-83057945D02*
X137323700Y-81245255D01*
X135494200Y-84556600D02*
G75*
G02*
X135291000Y-84556600I-101600J0D01*
G01*
X135291000Y-84556600D02*
G75*
G02*
X135494200Y-84556600I101600J0D01*
G01*
D11*
%TO.C,C10*%
X141832600Y-85239436D02*
X141832600Y-85023764D01*
X142552600Y-85239436D02*
X142552600Y-85023764D01*
D14*
%TO.C,G\u002A\u002A\u002A*%
G36*
X139457283Y-106025841D02*
G01*
X139448390Y-106034734D01*
X139439496Y-106025841D01*
X139448390Y-106016947D01*
X139457283Y-106025841D01*
G37*
G36*
X141307143Y-106061415D02*
G01*
X141298250Y-106070308D01*
X141289356Y-106061415D01*
X141298250Y-106052521D01*
X141307143Y-106061415D01*
G37*
G36*
X139703685Y-105629501D02*
G01*
X139755746Y-105644742D01*
X139813026Y-105653772D01*
X139908936Y-105666778D01*
X139995755Y-105688545D01*
X140061314Y-105715888D01*
X140069588Y-105720939D01*
X140109240Y-105742136D01*
X140137409Y-105750140D01*
X140176723Y-105764846D01*
X140225368Y-105804257D01*
X140276663Y-105861310D01*
X140323924Y-105928944D01*
X140348121Y-105972794D01*
X140404570Y-106087458D01*
X140452869Y-105985501D01*
X140490663Y-105920382D01*
X140539171Y-105856964D01*
X140591364Y-105802570D01*
X140640214Y-105764522D01*
X140678692Y-105750141D01*
X140678798Y-105750140D01*
X140714879Y-105738796D01*
X140740361Y-105721283D01*
X140791079Y-105692759D01*
X140868973Y-105669846D01*
X140966021Y-105652985D01*
X141074201Y-105642618D01*
X141185493Y-105639185D01*
X141291876Y-105643128D01*
X141385327Y-105654887D01*
X141457827Y-105674903D01*
X141471433Y-105681093D01*
X141512713Y-105693128D01*
X141551475Y-105696846D01*
X141600032Y-105706262D01*
X141653335Y-105729171D01*
X141658869Y-105732420D01*
X141705047Y-105755947D01*
X141743241Y-105767853D01*
X141747804Y-105768200D01*
X141784933Y-105773493D01*
X141810638Y-105792145D01*
X141827068Y-105829473D01*
X141836368Y-105890795D01*
X141840687Y-105981428D01*
X141841062Y-105999160D01*
X141836535Y-106058194D01*
X141823541Y-106123863D01*
X141805792Y-106180082D01*
X141793969Y-106203223D01*
X141774240Y-106247309D01*
X141769608Y-106276061D01*
X141756952Y-106316333D01*
X141734034Y-106346009D01*
X141706974Y-106382636D01*
X141698460Y-106412625D01*
X141685780Y-106445966D01*
X141654374Y-106485208D01*
X141645098Y-106493872D01*
X141610996Y-106529024D01*
X141592715Y-106558049D01*
X141591737Y-106563192D01*
X141577841Y-106585281D01*
X141542616Y-106615587D01*
X141520589Y-106630603D01*
X141478570Y-106660707D01*
X141453028Y-106685911D01*
X141449440Y-106693939D01*
X141434696Y-106712597D01*
X141398706Y-106733622D01*
X141393796Y-106735759D01*
X141338151Y-106759155D01*
X141418429Y-106814388D01*
X141523888Y-106901795D01*
X141600735Y-107001666D01*
X141652695Y-107120243D01*
X141682540Y-107256897D01*
X141694021Y-107328888D01*
X141707093Y-107377138D01*
X141727017Y-107413289D01*
X141759058Y-107448983D01*
X141777349Y-107466597D01*
X141879656Y-107584275D01*
X141951060Y-107712854D01*
X141990035Y-107848608D01*
X141995056Y-107987812D01*
X141994243Y-107996202D01*
X141977267Y-108080246D01*
X141946069Y-108170826D01*
X141906384Y-108253839D01*
X141864894Y-108314143D01*
X141844503Y-108348263D01*
X141822889Y-108401357D01*
X141813887Y-108429759D01*
X141773009Y-108570898D01*
X141739516Y-108681232D01*
X141712197Y-108764474D01*
X141689838Y-108824338D01*
X141673036Y-108861139D01*
X141629032Y-108925613D01*
X141565042Y-108996080D01*
X141492366Y-109061599D01*
X141422303Y-109111231D01*
X141404972Y-109120653D01*
X141347339Y-109152588D01*
X141281674Y-109193504D01*
X141251797Y-109213742D01*
X141194104Y-109250591D01*
X141119482Y-109293292D01*
X141043406Y-109333018D01*
X141038352Y-109335496D01*
X140961054Y-109376672D01*
X140882775Y-109423988D01*
X140819977Y-109467469D01*
X140817998Y-109469005D01*
X140755176Y-109512212D01*
X140688102Y-109549573D01*
X140649020Y-109566394D01*
X140570576Y-109585947D01*
X140475200Y-109598418D01*
X140377207Y-109602892D01*
X140290911Y-109598454D01*
X140252980Y-109591722D01*
X140142597Y-109551583D01*
X140029659Y-109489050D01*
X139964216Y-109441789D01*
X139907235Y-109402174D01*
X139836035Y-109360815D01*
X139788218Y-109337017D01*
X139714870Y-109299900D01*
X139633782Y-109253243D01*
X139603776Y-109234029D01*
X139980718Y-109234029D01*
X139989710Y-109283897D01*
X140033632Y-109339274D01*
X140101889Y-109393318D01*
X140227603Y-109462479D01*
X140352838Y-109496264D01*
X140478670Y-109494838D01*
X140584227Y-109467069D01*
X140683449Y-109421327D01*
X140768432Y-109365578D01*
X140831018Y-109305728D01*
X140853510Y-109272108D01*
X140870500Y-109233530D01*
X140866904Y-109207735D01*
X140839953Y-109176712D01*
X140838633Y-109175392D01*
X140789574Y-109138766D01*
X140722883Y-109112087D01*
X140632953Y-109093817D01*
X140514174Y-109082416D01*
X140495891Y-109081334D01*
X140331923Y-109082007D01*
X140190914Y-109104421D01*
X140067313Y-109149343D01*
X140006603Y-109189301D01*
X139980718Y-109234029D01*
X139603776Y-109234029D01*
X139579421Y-109218434D01*
X139525925Y-109183280D01*
X139483496Y-109157900D01*
X139460888Y-109147512D01*
X139460380Y-109147479D01*
X139439238Y-109137804D01*
X139398414Y-109112458D01*
X139347506Y-109077460D01*
X139248866Y-108989124D01*
X139165368Y-108880055D01*
X139105714Y-108762223D01*
X139094527Y-108729482D01*
X139075976Y-108668485D01*
X139051785Y-108589196D01*
X139028002Y-108511422D01*
X139210849Y-108511422D01*
X139214418Y-108601767D01*
X139234102Y-108697019D01*
X139246051Y-108733262D01*
X139290913Y-108820425D01*
X139357708Y-108907537D01*
X139437266Y-108985081D01*
X139520419Y-109043543D01*
X139565138Y-109064401D01*
X139647270Y-109084575D01*
X139728375Y-109087716D01*
X139798423Y-109074639D01*
X139847385Y-109046161D01*
X139851916Y-109041079D01*
X139875724Y-108987555D01*
X139883818Y-108911570D01*
X139876342Y-108822505D01*
X139853443Y-108729741D01*
X139846805Y-108710981D01*
X139803422Y-108627882D01*
X139761423Y-108572105D01*
X139975437Y-108572105D01*
X140004796Y-108678909D01*
X140068905Y-108779375D01*
X140099618Y-108812863D01*
X140198900Y-108888681D01*
X140312233Y-108934290D01*
X140433691Y-108948914D01*
X140557343Y-108931774D01*
X140568113Y-108927443D01*
X140932878Y-108927443D01*
X140943732Y-108999694D01*
X140963397Y-109038022D01*
X141015384Y-109075933D01*
X141088886Y-109094835D01*
X141175179Y-109094460D01*
X141265539Y-109074538D01*
X141325749Y-109049227D01*
X141406277Y-108995175D01*
X141486616Y-108920290D01*
X141553986Y-108837009D01*
X141570487Y-108811012D01*
X141593232Y-108768777D01*
X141607423Y-108729290D01*
X141615028Y-108682127D01*
X141618017Y-108616867D01*
X141618418Y-108557362D01*
X141614170Y-108450703D01*
X141599893Y-108373254D01*
X141573287Y-108319502D01*
X141532052Y-108283932D01*
X141497924Y-108268518D01*
X141437868Y-108264599D01*
X141364953Y-108286954D01*
X141284697Y-108331395D01*
X141202616Y-108393737D01*
X141124229Y-108469792D01*
X141055053Y-108555374D01*
X141000917Y-108645661D01*
X140962244Y-108742342D01*
X140939306Y-108838964D01*
X140932878Y-108927443D01*
X140568113Y-108927443D01*
X140667860Y-108887330D01*
X140766964Y-108816510D01*
X140837135Y-108731079D01*
X140879230Y-108635875D01*
X140894103Y-108535736D01*
X140882610Y-108435501D01*
X140845606Y-108340008D01*
X140783945Y-108254094D01*
X140698483Y-108182598D01*
X140590076Y-108130358D01*
X140531131Y-108113763D01*
X140411477Y-108103775D01*
X140293962Y-108124640D01*
X140185656Y-108173136D01*
X140093631Y-108246039D01*
X140024958Y-108340126D01*
X140022024Y-108345802D01*
X139981093Y-108460544D01*
X139975437Y-108572105D01*
X139761423Y-108572105D01*
X139737661Y-108540548D01*
X139659045Y-108459236D01*
X139577096Y-108394204D01*
X139525765Y-108365164D01*
X139446832Y-108339459D01*
X139365959Y-108329671D01*
X139297883Y-108337346D01*
X139289103Y-108340321D01*
X139248963Y-108373650D01*
X139222622Y-108433033D01*
X139210849Y-108511422D01*
X139028002Y-108511422D01*
X139026752Y-108507335D01*
X139023263Y-108495945D01*
X138994867Y-108414947D01*
X138960842Y-108334745D01*
X138927960Y-108271116D01*
X138924014Y-108264713D01*
X138870690Y-108162465D01*
X138833594Y-108053950D01*
X138817315Y-107953170D01*
X138817162Y-107946849D01*
X138959244Y-107946849D01*
X138968767Y-108025811D01*
X138993734Y-108113115D01*
X139028748Y-108193007D01*
X139059873Y-108240421D01*
X139105835Y-108281636D01*
X139147224Y-108288669D01*
X139186092Y-108261054D01*
X139221852Y-108203717D01*
X139264570Y-108092243D01*
X139294972Y-107960517D01*
X139310490Y-107822498D01*
X139310582Y-107777179D01*
X139457405Y-107777179D01*
X139470726Y-107903951D01*
X139476353Y-107925874D01*
X139506862Y-107991969D01*
X139557867Y-108061581D01*
X139618755Y-108122367D01*
X139678913Y-108161981D01*
X139679622Y-108162293D01*
X139763641Y-108183346D01*
X139862573Y-108184190D01*
X139962573Y-108165553D01*
X140019395Y-108144370D01*
X140135557Y-108072252D01*
X140226978Y-107977653D01*
X140290764Y-107865011D01*
X140324017Y-107738762D01*
X140328288Y-107671149D01*
X140319711Y-107587671D01*
X140516277Y-107587671D01*
X140518244Y-107701674D01*
X140550170Y-107818621D01*
X140565427Y-107852624D01*
X140623839Y-107944938D01*
X140701268Y-108029728D01*
X140788221Y-108098187D01*
X140875205Y-108141510D01*
X140877767Y-108142346D01*
X140987880Y-108162620D01*
X141096794Y-108155443D01*
X141194240Y-108121986D01*
X141226131Y-108102623D01*
X141309634Y-108024346D01*
X141362658Y-107927948D01*
X141385443Y-107812947D01*
X141386439Y-107777872D01*
X141382725Y-107748751D01*
X141489869Y-107748751D01*
X141497702Y-107851612D01*
X141515714Y-107962653D01*
X141541727Y-108071244D01*
X141573564Y-108166757D01*
X141609047Y-108238561D01*
X141613238Y-108244783D01*
X141649121Y-108283933D01*
X141682940Y-108289362D01*
X141722114Y-108261636D01*
X141729829Y-108253677D01*
X141790440Y-108164783D01*
X141827887Y-108057360D01*
X141841008Y-107940832D01*
X141828640Y-107824628D01*
X141794719Y-107728045D01*
X141759325Y-107670571D01*
X141712625Y-107612490D01*
X141662183Y-107561448D01*
X141615563Y-107525092D01*
X141580331Y-107511066D01*
X141580052Y-107511065D01*
X141550074Y-107527463D01*
X141522039Y-107571288D01*
X141500439Y-107634482D01*
X141494392Y-107664700D01*
X141489869Y-107748751D01*
X141382725Y-107748751D01*
X141370996Y-107656784D01*
X141328721Y-107544383D01*
X141264180Y-107444483D01*
X141181941Y-107360899D01*
X141086570Y-107297445D01*
X140982636Y-107257935D01*
X140874704Y-107246183D01*
X140771737Y-107264502D01*
X140672000Y-107315029D01*
X140594969Y-107389179D01*
X140542456Y-107481783D01*
X140516277Y-107587671D01*
X140319711Y-107587671D01*
X140315886Y-107550443D01*
X140277756Y-107451172D01*
X140211762Y-107368148D01*
X140198727Y-107356245D01*
X140119095Y-107303640D01*
X140028113Y-107270390D01*
X139962998Y-107262144D01*
X139925601Y-107267043D01*
X139869474Y-107279712D01*
X139830718Y-107290402D01*
X139771140Y-107313064D01*
X139716538Y-107346896D01*
X139656172Y-107399151D01*
X139626600Y-107428252D01*
X139535106Y-107540112D01*
X139478786Y-107656160D01*
X139457405Y-107777179D01*
X139310582Y-107777179D01*
X139310696Y-107721052D01*
X139300197Y-107624198D01*
X139280337Y-107561338D01*
X139249824Y-107531819D01*
X139207364Y-107534986D01*
X139151664Y-107570186D01*
X139102032Y-107615603D01*
X139024789Y-107715486D01*
X138976019Y-107829075D01*
X138959244Y-107946849D01*
X138817162Y-107946849D01*
X138816947Y-107937956D01*
X138831349Y-107825402D01*
X138870865Y-107707096D01*
X138929961Y-107594547D01*
X139003104Y-107499264D01*
X139047667Y-107458110D01*
X139083735Y-107426992D01*
X139105197Y-107397325D01*
X139117336Y-107357401D01*
X139121059Y-107328951D01*
X139268840Y-107328951D01*
X139276967Y-107373058D01*
X139304020Y-107387843D01*
X139351899Y-107374746D01*
X139401822Y-107347970D01*
X139471598Y-107301809D01*
X139549731Y-107243051D01*
X139631274Y-107176257D01*
X139711282Y-107105989D01*
X139784809Y-107036810D01*
X139815692Y-107005216D01*
X140008684Y-107005216D01*
X140025015Y-107058664D01*
X140069550Y-107112651D01*
X140135600Y-107160776D01*
X140204502Y-107192593D01*
X140293889Y-107214061D01*
X140399451Y-107223704D01*
X140509459Y-107221889D01*
X140612185Y-107208980D01*
X140695901Y-107185340D01*
X140714546Y-107176739D01*
X140792369Y-107124045D01*
X140835669Y-107065727D01*
X140844169Y-107003133D01*
X140817587Y-106937611D01*
X140774510Y-106887406D01*
X140740705Y-106862992D01*
X140891087Y-106862992D01*
X140896751Y-106895233D01*
X140924360Y-106941357D01*
X140974175Y-107001816D01*
X141046127Y-107074488D01*
X141132270Y-107152594D01*
X141224663Y-107229354D01*
X141315360Y-107297988D01*
X141396419Y-107351715D01*
X141422496Y-107366523D01*
X141482768Y-107396020D01*
X141518402Y-107403131D01*
X141534640Y-107384770D01*
X141536726Y-107337853D01*
X141533942Y-107300953D01*
X141505918Y-107168240D01*
X141449111Y-107054938D01*
X141365871Y-106963252D01*
X141258551Y-106895385D01*
X141129504Y-106853543D01*
X141044218Y-106841963D01*
X140962045Y-106838658D01*
X140911926Y-106844901D01*
X140891087Y-106862992D01*
X140740705Y-106862992D01*
X140672420Y-106813677D01*
X140553396Y-106766540D01*
X140427686Y-106749641D01*
X140390760Y-106750968D01*
X140295123Y-106768119D01*
X140203646Y-106801903D01*
X140122836Y-106847991D01*
X140059198Y-106902054D01*
X140019236Y-106959763D01*
X140008684Y-107005216D01*
X139815692Y-107005216D01*
X139846908Y-106973281D01*
X139892633Y-106919964D01*
X139917038Y-106881421D01*
X139919748Y-106870274D01*
X139903512Y-106845293D01*
X139858678Y-106830258D01*
X139791062Y-106826093D01*
X139706477Y-106833724D01*
X139698180Y-106835029D01*
X139565835Y-106872421D01*
X139455885Y-106937172D01*
X139369587Y-107028031D01*
X139308199Y-107143745D01*
X139277735Y-107254081D01*
X139268840Y-107328951D01*
X139121059Y-107328951D01*
X139125435Y-107295514D01*
X139126687Y-107283009D01*
X139155135Y-107147631D01*
X139210433Y-107020067D01*
X139287960Y-106907693D01*
X139383094Y-106817886D01*
X139441376Y-106780714D01*
X139483964Y-106757850D01*
X139427514Y-106734751D01*
X139385892Y-106710009D01*
X139361514Y-106681320D01*
X139360857Y-106679490D01*
X139337979Y-106650865D01*
X139297302Y-106627192D01*
X139297284Y-106627186D01*
X139256078Y-106603272D01*
X139232303Y-106574355D01*
X139212037Y-106540903D01*
X139177120Y-106500687D01*
X139170007Y-106493755D01*
X139137021Y-106454373D01*
X139119971Y-106418004D01*
X139119328Y-106412023D01*
X139106804Y-106374980D01*
X139083754Y-106346009D01*
X139056341Y-106304054D01*
X139048180Y-106266767D01*
X139041102Y-106223792D01*
X139028266Y-106199806D01*
X139011083Y-106167965D01*
X138994401Y-106114115D01*
X138981469Y-106051716D01*
X138978688Y-106024786D01*
X139071239Y-106024786D01*
X139099451Y-106059426D01*
X139120473Y-106080299D01*
X139174979Y-106132519D01*
X139133813Y-106142686D01*
X139109755Y-106150136D01*
X139106249Y-106161118D01*
X139125315Y-106183525D01*
X139150456Y-106207653D01*
X139191173Y-106248788D01*
X139205728Y-106272238D01*
X139195709Y-106282576D01*
X139177136Y-106284422D01*
X139166253Y-106291684D01*
X139182251Y-106314076D01*
X139216020Y-106345006D01*
X139255789Y-106380034D01*
X139270832Y-106398629D01*
X139263752Y-106407132D01*
X139243133Y-106411040D01*
X139222010Y-106416345D01*
X139224005Y-106426074D01*
X139252550Y-106444440D01*
X139284292Y-106461594D01*
X139339937Y-106493564D01*
X139364364Y-106515264D01*
X139359477Y-106529403D01*
X139337220Y-106536780D01*
X139333362Y-106545714D01*
X139360649Y-106562481D01*
X139402090Y-106579886D01*
X139456738Y-106603966D01*
X139479152Y-106622099D01*
X139475786Y-106630160D01*
X139464804Y-106647202D01*
X139483565Y-106662123D01*
X139526247Y-106672153D01*
X139569651Y-106674798D01*
X139613136Y-106677198D01*
X139629274Y-106687446D01*
X139626200Y-106710832D01*
X139626005Y-106711450D01*
X139621851Y-106732099D01*
X139631641Y-106741368D01*
X139662948Y-106741543D01*
X139709295Y-106736586D01*
X139777704Y-106726317D01*
X139842613Y-106713151D01*
X139866387Y-106706943D01*
X139973225Y-106660657D01*
X140054153Y-106593587D01*
X140082232Y-106555571D01*
X140122000Y-106491225D01*
X140032070Y-106408534D01*
X139948477Y-106337690D01*
X139848488Y-106264691D01*
X139726303Y-106185526D01*
X139601728Y-106111013D01*
X139540971Y-106074237D01*
X139510954Y-106052760D01*
X139510443Y-106046288D01*
X139538203Y-106054527D01*
X139593001Y-106077182D01*
X139673601Y-106113960D01*
X139732984Y-106142274D01*
X139873853Y-106215220D01*
X140010753Y-106297164D01*
X140157652Y-106396483D01*
X140161600Y-106399279D01*
X140198488Y-106405371D01*
X140242881Y-106377152D01*
X140281332Y-106332880D01*
X140310467Y-106265208D01*
X140310628Y-106257548D01*
X140494006Y-106257548D01*
X140523900Y-106336325D01*
X140544140Y-106363177D01*
X140579962Y-106400432D01*
X140607643Y-106422978D01*
X140615238Y-106426051D01*
X140636227Y-106416152D01*
X140677416Y-106389943D01*
X140730695Y-106352649D01*
X140742352Y-106344126D01*
X140790793Y-106311676D01*
X140856175Y-106272308D01*
X140932239Y-106229281D01*
X141012728Y-106185851D01*
X141091381Y-106145277D01*
X141161940Y-106110815D01*
X141218145Y-106085724D01*
X141253738Y-106073262D01*
X141262700Y-106073297D01*
X141252244Y-106085065D01*
X141217505Y-106109267D01*
X141165375Y-106141202D01*
X141150983Y-106149529D01*
X141033402Y-106220994D01*
X140923467Y-106295635D01*
X140829390Y-106367548D01*
X140759381Y-106430827D01*
X140758426Y-106431816D01*
X140719568Y-106481120D01*
X140710120Y-106523953D01*
X140730601Y-106568920D01*
X140769341Y-106612670D01*
X140859860Y-106680315D01*
X140972726Y-106723547D01*
X141110320Y-106743220D01*
X141135897Y-106744270D01*
X141178678Y-106743608D01*
X141192113Y-106736227D01*
X141183307Y-106720350D01*
X141175761Y-106704474D01*
X141189697Y-106693931D01*
X141231097Y-106685451D01*
X141252677Y-106682432D01*
X141306182Y-106672787D01*
X141343460Y-106661329D01*
X141353060Y-106654939D01*
X141348680Y-106640914D01*
X141340210Y-106639496D01*
X141326455Y-106634075D01*
X141340358Y-106620407D01*
X141376141Y-106602383D01*
X141418313Y-106586904D01*
X141463494Y-106567570D01*
X141483856Y-106548874D01*
X141476343Y-106535538D01*
X141453887Y-106531945D01*
X141450535Y-106524502D01*
X141474012Y-106506097D01*
X141507248Y-106487137D01*
X141561796Y-106454453D01*
X141588525Y-106428766D01*
X141585711Y-106412614D01*
X141560821Y-106408264D01*
X141551922Y-106400448D01*
X141574705Y-106377200D01*
X141596395Y-106360955D01*
X141645048Y-106321643D01*
X141661264Y-106296097D01*
X141644960Y-106284494D01*
X141632716Y-106283754D01*
X141620376Y-106277429D01*
X141631906Y-106255829D01*
X141662886Y-106221499D01*
X141697371Y-106184536D01*
X141708576Y-106166088D01*
X141698671Y-106159809D01*
X141684162Y-106159244D01*
X141655965Y-106157489D01*
X141648825Y-106148332D01*
X141664218Y-106125934D01*
X141702907Y-106085187D01*
X141736912Y-106049278D01*
X141747731Y-106031100D01*
X141737385Y-106023282D01*
X141720694Y-106020327D01*
X141687111Y-106004893D01*
X141685075Y-105973290D01*
X141706788Y-105935858D01*
X141728473Y-105901859D01*
X141725516Y-105883311D01*
X141693940Y-105875767D01*
X141652089Y-105874650D01*
X141602361Y-105872657D01*
X141580881Y-105864719D01*
X141580449Y-105847898D01*
X141581237Y-105845742D01*
X141583155Y-105829564D01*
X141567881Y-105822368D01*
X141528316Y-105822467D01*
X141493946Y-105824993D01*
X141438191Y-105828492D01*
X141410316Y-105825673D01*
X141402886Y-105814522D01*
X141405740Y-105801082D01*
X141409193Y-105782624D01*
X141398394Y-105777323D01*
X141365705Y-105784352D01*
X141334851Y-105793409D01*
X141279890Y-105806807D01*
X141256061Y-105804199D01*
X141262580Y-105785301D01*
X141275126Y-105771485D01*
X141285391Y-105753520D01*
X141266840Y-105750949D01*
X141222636Y-105763574D01*
X141188783Y-105776821D01*
X141141994Y-105795853D01*
X141119354Y-105801186D01*
X141112100Y-105792620D01*
X141111485Y-105775064D01*
X141107266Y-105759499D01*
X141089437Y-105761703D01*
X141050238Y-105782765D01*
X141048213Y-105783958D01*
X141002075Y-105810255D01*
X140978624Y-105818995D01*
X140970218Y-105811209D01*
X140969188Y-105794608D01*
X140960903Y-105770537D01*
X140935989Y-105777778D01*
X140898040Y-105812395D01*
X140860049Y-105847588D01*
X140837076Y-105853776D01*
X140824774Y-105831795D01*
X140823694Y-105826715D01*
X140815132Y-105814490D01*
X140794906Y-105824563D01*
X140758212Y-105859591D01*
X140751395Y-105866736D01*
X140711877Y-105905266D01*
X140690686Y-105917154D01*
X140684748Y-105905778D01*
X140678527Y-105878887D01*
X140659513Y-105882186D01*
X140626555Y-105916314D01*
X140598190Y-105953827D01*
X140531332Y-106064926D01*
X140496543Y-106166624D01*
X140494006Y-106257548D01*
X140310628Y-106257548D01*
X140312235Y-106181215D01*
X140287732Y-106085921D01*
X140238053Y-105984348D01*
X140189832Y-105913440D01*
X140160382Y-105877960D01*
X140142787Y-105868674D01*
X140129476Y-105881971D01*
X140128265Y-105884088D01*
X140115566Y-105898086D01*
X140097182Y-105894073D01*
X140065873Y-105868824D01*
X140041118Y-105845299D01*
X140003643Y-105811220D01*
X139979419Y-105793664D01*
X139973954Y-105794608D01*
X139976677Y-105835178D01*
X139962843Y-105844616D01*
X139931423Y-105823351D01*
X139923222Y-105815723D01*
X139881304Y-105779408D01*
X139857753Y-105770014D01*
X139848931Y-105786513D01*
X139848600Y-105794608D01*
X139845047Y-105815790D01*
X139830299Y-105817288D01*
X139798224Y-105797711D01*
X139770139Y-105776821D01*
X139725087Y-105744425D01*
X139702289Y-105734936D01*
X139697185Y-105747881D01*
X139701612Y-105769696D01*
X139705913Y-105793977D01*
X139694916Y-105797110D01*
X139660668Y-105781221D01*
X139659925Y-105780843D01*
X139607855Y-105757190D01*
X139564145Y-105740935D01*
X139534206Y-105733504D01*
X139533004Y-105742103D01*
X139544446Y-105756898D01*
X139561653Y-105785353D01*
X139550101Y-105796128D01*
X139508478Y-105789934D01*
X139491797Y-105785410D01*
X139441305Y-105771988D01*
X139417335Y-105770936D01*
X139412433Y-105784089D01*
X139416656Y-105803889D01*
X139419691Y-105827929D01*
X139404469Y-105830592D01*
X139378259Y-105821676D01*
X139323333Y-105806660D01*
X139274569Y-105803069D01*
X139241032Y-105810374D01*
X139231792Y-105828046D01*
X139232483Y-105830182D01*
X139231857Y-105846988D01*
X139208574Y-105855012D01*
X139163238Y-105856863D01*
X139110696Y-105859028D01*
X139088928Y-105869771D01*
X139093203Y-105895470D01*
X139110435Y-105928012D01*
X139133534Y-105979379D01*
X139131908Y-106008162D01*
X139105724Y-106012779D01*
X139101541Y-106011793D01*
X139072009Y-106009176D01*
X139071239Y-106024786D01*
X138978688Y-106024786D01*
X138975533Y-105994227D01*
X138975549Y-105981373D01*
X138976484Y-105932304D01*
X138976710Y-105874307D01*
X138976697Y-105871449D01*
X138991284Y-105808612D01*
X139031808Y-105765886D01*
X139092158Y-105749575D01*
X139135085Y-105738542D01*
X139162749Y-105722894D01*
X139205735Y-105703780D01*
X139252574Y-105696779D01*
X139297486Y-105691296D01*
X139326111Y-105678540D01*
X139362747Y-105660346D01*
X139430221Y-105645718D01*
X139523896Y-105635575D01*
X139551938Y-105633788D01*
X139603957Y-105629192D01*
X139639406Y-105622895D01*
X139647149Y-105619565D01*
X139668527Y-105618742D01*
X139703685Y-105629501D01*
G37*
D11*
%TO.C,C4*%
X142791348Y-70766600D02*
X143313852Y-70766600D01*
X142791348Y-72236600D02*
X143313852Y-72236600D01*
%TO.C,R6*%
X146636241Y-90871600D02*
X146328959Y-90871600D01*
X146636241Y-91631600D02*
X146328959Y-91631600D01*
%TO.C,R12*%
X136448959Y-98621600D02*
X136756241Y-98621600D01*
X136448959Y-99381600D02*
X136756241Y-99381600D01*
%TO.C,R9*%
X146012600Y-85007959D02*
X146012600Y-85315241D01*
X146772600Y-85007959D02*
X146772600Y-85315241D01*
%TO.C,C6*%
X142591348Y-76766600D02*
X143113852Y-76766600D01*
X142591348Y-78236600D02*
X143113852Y-78236600D01*
%TO.C,R14*%
X147512600Y-76487959D02*
X147512600Y-76795241D01*
X148272600Y-76487959D02*
X148272600Y-76795241D01*
%TO.C,J1*%
X136942600Y-63161600D02*
X136942600Y-62901600D01*
X136942600Y-67211600D02*
X136942600Y-65441600D01*
X136942600Y-67211600D02*
X137322600Y-67211600D01*
X144562600Y-62901600D02*
X144562600Y-63161600D01*
X144562600Y-65441600D02*
X144562600Y-67211600D01*
X144562600Y-67211600D02*
X144182600Y-67211600D01*
D15*
%TO.C,SW1*%
X135192600Y-74276600D02*
X135192600Y-76676600D01*
X137292600Y-73276600D02*
X136492600Y-73276600D01*
X137292600Y-77676600D02*
X136492600Y-77676600D01*
X138592600Y-74276600D02*
X138592600Y-76776600D01*
X138192600Y-74376600D02*
G75*
G02*
X137992600Y-74376600I-100000J0D01*
G01*
X137992600Y-74376600D02*
G75*
G02*
X138192600Y-74376600I100000J0D01*
G01*
D10*
%TO.C,D2*%
X132377600Y-68301600D02*
G75*
G02*
X132277600Y-68301600I-50000J0D01*
G01*
X132277600Y-68301600D02*
G75*
G02*
X132377600Y-68301600I50000J0D01*
G01*
D11*
%TO.C,R13*%
X138798959Y-99121600D02*
X139106241Y-99121600D01*
X138798959Y-99881600D02*
X139106241Y-99881600D01*
%TO.C,R15*%
X147412600Y-85007959D02*
X147412600Y-85315241D01*
X148172600Y-85007959D02*
X148172600Y-85315241D01*
%TO.C,R1*%
X133212600Y-81387959D02*
X133212600Y-81695241D01*
X133972600Y-81387959D02*
X133972600Y-81695241D01*
D13*
%TO.C,U1*%
X142217550Y-75924000D02*
X143587650Y-75924000D01*
X143587650Y-73079200D02*
X142217550Y-73079200D01*
X145155200Y-75501600D02*
G75*
G02*
X144952000Y-75501600I-101600J0D01*
G01*
X144952000Y-75501600D02*
G75*
G02*
X145155200Y-75501600I101600J0D01*
G01*
D11*
%TO.C,R2*%
X133212600Y-83915241D02*
X133212600Y-83607959D01*
X133972600Y-83915241D02*
X133972600Y-83607959D01*
%TO.C,C12*%
X143032600Y-85239436D02*
X143032600Y-85023764D01*
X143752600Y-85239436D02*
X143752600Y-85023764D01*
%TO.C,C15*%
X134284764Y-86691600D02*
X134500436Y-86691600D01*
X134284764Y-87411600D02*
X134500436Y-87411600D01*
%TO.C,C14*%
X144632600Y-85279436D02*
X144632600Y-85063764D01*
X145352600Y-85279436D02*
X145352600Y-85063764D01*
D13*
%TO.C,U2*%
X136870400Y-86869400D02*
X136870400Y-87479960D01*
X136870400Y-93523240D02*
X136870400Y-94133800D01*
X136870400Y-94133800D02*
X137480960Y-94133800D01*
X137480960Y-86869400D02*
X136870400Y-86869400D01*
X143524240Y-94133800D02*
X144134800Y-94133800D01*
X144134800Y-86869400D02*
X143524240Y-86869400D01*
X144134800Y-87479960D02*
X144134800Y-86869400D01*
X144134800Y-94133800D02*
X144134800Y-93523240D01*
D14*
G36*
X136438600Y-91692101D02*
G01*
X136184600Y-91692101D01*
X136184600Y-91311101D01*
X136438600Y-91311101D01*
X136438600Y-91692101D01*
G37*
G36*
X140093101Y-94819600D02*
G01*
X139712101Y-94819600D01*
X139712101Y-94565600D01*
X140093101Y-94565600D01*
X140093101Y-94819600D01*
G37*
G36*
X140493100Y-86437600D02*
G01*
X140112100Y-86437600D01*
X140112100Y-86183600D01*
X140493100Y-86183600D01*
X140493100Y-86437600D01*
G37*
G36*
X144820600Y-88892101D02*
G01*
X144566600Y-88892101D01*
X144566600Y-88511101D01*
X144820600Y-88511101D01*
X144820600Y-88892101D01*
G37*
G36*
X144820600Y-92892101D02*
G01*
X144566600Y-92892101D01*
X144566600Y-92511101D01*
X144820600Y-92511101D01*
X144820600Y-92892101D01*
G37*
D11*
%TO.C,R8*%
X143270100Y-80289342D02*
X143270100Y-80763858D01*
X144315100Y-80289342D02*
X144315100Y-80763858D01*
%TO.C,X1*%
X135502600Y-100201600D02*
X135502600Y-102801600D01*
X135502600Y-102801600D02*
X138702600Y-102801600D01*
%TO.C,R3*%
X136966241Y-69521600D02*
X136658959Y-69521600D01*
X136966241Y-70281600D02*
X136658959Y-70281600D01*
%TO.C,R11*%
X136986241Y-70721600D02*
X136678959Y-70721600D01*
X136986241Y-71481600D02*
X136678959Y-71481600D01*
%TD*%
D16*
X149702600Y-111925600D03*
X149702600Y-109021600D03*
X149702600Y-106481600D03*
X149702600Y-103941600D03*
X149702600Y-101401600D03*
X149702600Y-98861600D03*
X149702600Y-96321600D03*
X149702600Y-93781600D03*
X149702600Y-91241600D03*
X149702600Y-88701600D03*
X149702600Y-86161600D03*
X149702600Y-83621600D03*
X149702600Y-81081600D03*
X149702600Y-78541600D03*
X149702600Y-76001600D03*
X149702600Y-73461600D03*
X149702600Y-70921600D03*
X149702600Y-68381600D03*
X149702600Y-65841600D03*
X149702600Y-63301600D03*
X137702600Y-111901600D03*
X140342600Y-111901600D03*
X142782600Y-111901600D03*
X131102600Y-63301600D03*
X131102600Y-65886600D03*
X131102600Y-68426600D03*
X131102600Y-70966600D03*
X131102600Y-73506600D03*
X131102600Y-76046600D03*
X131102600Y-78586600D03*
X131102600Y-81126600D03*
X131102600Y-83666600D03*
X131102600Y-86206600D03*
X131102600Y-88746600D03*
X131102600Y-91286600D03*
X131102600Y-93826600D03*
X131102600Y-96366600D03*
X131102600Y-98906600D03*
X131102600Y-101446600D03*
X131102600Y-103986600D03*
X131102600Y-106526600D03*
X131102600Y-109066600D03*
X131102600Y-111606600D03*
M02*
